<svg width="48" height="48" viewBox="0 0 48 48" fill="current" xmlns="http://www.w3.org/2000/svg">
<path d="M23.9998 32.804C23.6308 32.804 23.2769 32.6574 23.0159 32.3965C22.755 32.1355 22.6084 31.7816 22.6084 31.4126V16.5704C22.6084 16.2014 22.755 15.8475 23.0159 15.5865C23.2769 15.3256 23.6308 15.179 23.9998 15.179C24.3689 15.179 24.7228 15.3256 24.9838 15.5865C25.2447 15.8475 25.3913 16.2014 25.3913 16.5704V31.4126C25.3913 31.7816 25.2447 32.1355 24.9838 32.3965C24.7228 32.6574 24.3689 32.804 23.9998 32.804Z" fill="current"/>
<path d="M31.4208 25.3829H16.5787C16.2397 25.3436 15.927 25.1811 15.7 24.9262C15.4731 24.6714 15.3477 24.342 15.3477 24.0008C15.3477 23.6595 15.4731 23.3301 15.7 23.0753C15.927 22.8205 16.2397 22.6579 16.5787 22.6186H31.4208C31.7899 22.6186 32.1438 22.7652 32.4048 23.0261C32.6657 23.2871 32.8123 23.641 32.8123 24.01C32.8123 24.3791 32.6657 24.733 32.4048 24.9939C32.1438 25.2549 31.7899 25.4015 31.4208 25.4015V25.3829Z" fill="current"/>
<path d="M24.0004 41.9875C23.753 41.9895 23.5097 41.9254 23.2954 41.802L8.91702 33.509C8.70955 33.3829 8.53765 33.2059 8.41754 32.9949C8.29744 32.7839 8.23309 32.5458 8.23057 32.303V15.6984C8.22757 15.4545 8.28958 15.2143 8.41023 15.0023C8.53088 14.7904 8.7058 14.6144 8.91702 14.4925L23.2954 6.18086C23.5081 6.06226 23.7475 6 23.9911 6C24.2346 6 24.4741 6.06226 24.6868 6.18086L39.0651 14.4925C39.2811 14.6104 39.4609 14.7851 39.5851 14.9975C39.7093 15.21 39.7733 15.4523 39.7701 15.6984V32.3958C39.7675 32.6407 39.7011 32.8807 39.5775 33.0922C39.4538 33.3037 39.2773 33.4793 39.0651 33.6017L24.6868 41.8948C24.4709 41.9882 24.2333 42.0203 24.0004 41.9875ZM11.0135 31.4867L24.0004 38.9078L36.9872 31.4867V16.4962L24.0004 9.07508L11.0135 16.4962V31.4867Z" fill="current"/>
</svg>
