<svg width="178" height="187" viewBox="0 0 178 187" fill="none" xmlns="http://www.w3.org/2000/svg">
<path fill-rule="evenodd" clip-rule="evenodd" d="M0 93.3227C0 144.73 39.7702 186.452 88.7727 186.452C137.775 186.452 177.545 144.73 177.545 93.3227C177.545 41.9153 137.775 0.193359 88.7727 0.193359C39.7702 0.193359 0 41.9153 0 93.3227ZM115.405 56.071C115.405 71.5305 103.509 84.0098 88.7727 84.0098C74.0365 84.0098 62.141 71.5305 62.141 56.071C62.141 40.6115 74.0365 28.1322 88.7727 28.1322C103.509 28.1322 115.405 40.6115 115.405 56.071ZM35.5091 130.388C35.7725 111.855 71.0182 101.704 88.7727 101.704C106.436 101.704 141.767 111.855 142.036 130.388C130.582 148.455 110.966 160.376 88.7727 160.376C66.5796 160.376 46.9579 148.455 35.5091 130.388Z" fill="#D9D9D9" fill-opacity="0.3"/>
</svg>
