<svg width="48" height="48" viewBox="0 0 48 48" fill="none" xmlns="http://www.w3.org/2000/svg">
<path d="M22.6079 29.9922C22.2389 29.9919 21.8851 29.845 21.6243 29.5839L17.9125 25.8721C17.7491 25.6009 17.6831 25.2822 17.7253 24.9684C17.7675 24.6546 17.9154 24.3646 18.1446 24.1462C18.3738 23.9278 18.6706 23.7941 18.9861 23.7671C19.3015 23.7401 19.6167 23.8214 19.8797 23.9977L22.5337 26.6702L28.1014 20.3601C28.2232 20.2236 28.3708 20.1125 28.5356 20.033C28.7004 19.9536 28.8793 19.9073 29.0619 19.897C29.2446 19.8867 29.4275 19.9124 29.6003 19.9728C29.773 20.0331 29.9322 20.1269 30.0686 20.2488C30.2051 20.3706 30.3163 20.5182 30.3957 20.683C30.4752 20.8478 30.5214 21.0266 30.5317 21.2093C30.5421 21.392 30.5163 21.5749 30.456 21.7476C30.3956 21.9204 30.3018 22.0795 30.18 22.216L23.6843 29.6396C23.5621 29.7816 23.4113 29.8963 23.2419 29.9762C23.0724 30.0561 22.888 30.0995 22.7007 30.1036L22.6079 29.9922Z" fill="current"/>
<path d="M23.9999 41.9998C23.7525 42.0017 23.509 41.9377 23.2946 41.8142L8.9114 33.4998C8.70011 33.3778 8.52512 33.2018 8.40443 32.9898C8.28374 32.7777 8.22171 32.5374 8.22471 32.2934V15.7017C8.22171 15.4577 8.28374 15.2174 8.40443 15.0054C8.52512 14.7934 8.70011 14.6173 8.9114 14.4954L23.2946 6.18092C23.5074 6.06228 23.747 6 23.9906 6C24.2342 6 24.4738 6.06228 24.6866 6.18092L39.0698 14.4954C39.2858 14.6134 39.4657 14.788 39.5899 15.0006C39.7142 15.2131 39.7782 15.4555 39.775 15.7017V32.2934C39.7782 32.5396 39.7142 32.782 39.5899 32.9945C39.4657 33.2071 39.2858 33.3818 39.0698 33.4998L24.6866 41.8142C24.4798 41.9397 24.2417 42.004 23.9999 41.9998ZM11.0086 31.4212L23.9999 38.8448L36.9912 31.4212V16.574L23.9999 9.15037L11.0086 16.574V31.4212Z" fill="current"/>
</svg>
