<svg width="31" height="36" viewBox="0 0 31 36" fill="none" xmlns="http://www.w3.org/2000/svg">
<path d="M15.4286 36L0 26.6667L0 9.33333L15.4286 0L30.8571 9.33333V26.6667L15.4286 36Z" fill="#7DFAA4"/>
<path d="M19.919 13.0912C20.2327 13.0912 20.5334 13.2158 20.7552 13.4376C20.977 13.6593 21.1016 13.9601 21.1016 14.2737L21.1016 24.8376C21.1008 25.0741 21.03 25.3052 20.8981 25.5016C20.7663 25.698 20.5792 25.851 20.3605 25.9412C20.146 26.0267 19.9113 26.0484 19.6847 26.0037C19.4581 25.9589 19.2493 25.8496 19.0834 25.689L14.7633 21.3531C14.6517 21.2444 14.563 21.1144 14.5025 20.9709C14.442 20.8274 14.4108 20.6732 14.4108 20.5174C14.4108 20.3617 14.442 20.2075 14.5025 20.0639C14.563 19.9204 14.6517 19.7905 14.7633 19.6818C14.985 19.4603 15.2855 19.3359 15.5989 19.3359C15.9123 19.3359 16.2128 19.4603 16.4346 19.6818L18.7365 21.9837L18.7365 14.2737C18.7344 14.1178 18.7635 13.9631 18.8222 13.8187C18.8809 13.6743 18.9679 13.5431 19.0782 13.4328C19.1884 13.3226 19.3196 13.2356 19.464 13.1769C19.6084 13.1182 19.7632 13.0891 19.919 13.0912Z" fill="#080235"/>
<path d="M24.2463 19.3343C24.5584 19.3411 24.8567 19.4649 25.0819 19.6812C25.3033 19.9029 25.4277 20.2035 25.4277 20.5168C25.4277 20.8302 25.3033 21.1308 25.0819 21.3525L20.7618 25.6884C20.651 25.7981 20.5197 25.885 20.3754 25.944C20.231 26.003 20.0765 26.0329 19.9205 26.0322C19.7646 26.0315 19.6104 26 19.4666 25.9397C19.3228 25.8794 19.1923 25.7913 19.0826 25.6805C18.9729 25.5697 18.886 25.4384 18.827 25.2941C18.768 25.1498 18.738 24.9952 18.7388 24.8393C18.7395 24.6834 18.7709 24.5291 18.8313 24.3853C18.8916 24.2415 18.9797 24.1111 19.0905 24.0013L23.4106 19.6812C23.6322 19.4594 23.9327 19.3346 24.2463 19.3343Z" fill="#080235"/>
<path d="M10.5108 23.942C10.8245 23.942 11.1252 23.8174 11.347 23.5956C11.5688 23.3739 11.6934 23.0731 11.6934 22.7595L11.6934 12.1957C11.6926 11.9591 11.6218 11.728 11.4899 11.5316C11.358 11.3352 11.171 11.1822 10.9523 11.092C10.7378 11.0065 10.5031 10.9848 10.2765 11.0296C10.0499 11.0743 9.84112 11.1836 9.6752 11.3442L5.35506 15.6801C5.2435 15.7888 5.15483 15.9188 5.09429 16.0623C5.03375 16.2058 5.00256 16.36 5.00256 16.5158C5.00256 16.6716 5.03375 16.8257 5.09429 16.9693C5.15483 17.1128 5.2435 17.2427 5.35506 17.3514C5.57679 17.5729 5.87734 17.6973 6.19071 17.6973C6.50408 17.6973 6.80463 17.5729 7.02635 17.3514L9.32832 15.0495L9.32832 22.7595C9.3262 22.9154 9.35534 23.0701 9.41402 23.2145C9.47269 23.3589 9.55972 23.4901 9.66995 23.6004C9.78018 23.7106 9.91139 23.7976 10.0558 23.8563C10.2002 23.915 10.355 23.9441 10.5108 23.942Z" fill="#080235"/>
<path d="M14.8302 17.6979C15.1424 17.6911 15.4407 17.5673 15.6659 17.351C15.8873 17.1293 16.0117 16.8288 16.0117 16.5154C16.0117 16.202 15.8873 15.9015 15.6659 15.6797L11.3458 11.3438C11.235 11.2341 11.1037 11.1473 10.9593 11.0883C10.815 11.0293 10.6605 10.9993 10.5045 11C10.3486 11.0007 10.1944 11.0322 10.0506 11.0925C9.9068 11.1529 9.77632 11.2409 9.66658 11.3517C9.55684 11.4625 9.47 11.5938 9.411 11.7381C9.35201 11.8825 9.32202 12.037 9.32275 12.1929C9.32349 12.3489 9.35492 12.5031 9.41527 12.6469C9.47562 12.7907 9.56369 12.9212 9.67446 13.0309L13.9946 17.351C14.2161 17.5729 14.5167 17.6976 14.8302 17.6979Z" fill="#080235"/>
</svg>
