<svg width="48" height="48" viewBox="0 0 48 48" fill="current" xmlns="http://www.w3.org/2000/svg">
<path d="M6.00019 23.8672C5.99596 23.6245 6.06052 23.3856 6.18643 23.1781L14.5297 8.70769C14.6512 8.49349 14.8272 8.31522 15.0398 8.19093C15.2523 8.06665 15.494 8.00078 15.7403 8L32.3896 8C32.6359 8.00078 32.8775 8.06665 33.0901 8.19093C33.3027 8.31522 33.4787 8.49349 33.6001 8.70769L41.9434 23.1781C42.0625 23.3916 42.125 23.632 42.125 23.8765C42.125 24.121 42.0625 24.3614 41.9434 24.5749L33.6001 39.008C33.4778 39.2201 33.3011 39.3957 33.0883 39.5168C32.8756 39.6379 32.6344 39.7001 32.3896 39.6971L15.7403 39.6971C15.4955 39.7001 15.2543 39.6379 15.0415 39.5168C14.8288 39.3957 14.6521 39.2201 14.5297 39.008L6.18643 24.5749C6.06256 24.3597 5.99828 24.1154 6.00019 23.8672ZM16.6156 10.8308L9.16618 23.8672L16.6156 36.9036L31.5143 36.9036L38.9637 23.8672L31.5143 10.8308L16.6156 10.8308Z" fill="current"/>
<path d="M29.3768 28.768C29.3768 29.068 29.2577 29.3556 29.0456 29.5677C28.8335 29.7798 28.5458 29.899 28.2459 29.899L18.1428 29.899C17.9166 29.8982 17.6956 29.8305 17.5078 29.7044C17.3199 29.5783 17.1736 29.3994 17.0873 29.1902C17.0055 28.985 16.9848 28.7606 17.0276 28.5439C17.0704 28.3272 17.1749 28.1275 17.3285 27.9688L21.4753 23.8371C21.5793 23.7304 21.7036 23.6456 21.8408 23.5877C21.9781 23.5298 22.1255 23.5 22.2745 23.5C22.4235 23.5 22.571 23.5298 22.7082 23.5877C22.8455 23.6456 22.9698 23.7304 23.0737 23.8371C23.2855 24.0492 23.4045 24.3366 23.4045 24.6363C23.4045 24.936 23.2855 25.2235 23.0737 25.4355L20.8722 27.6371L28.2459 27.6371C28.395 27.635 28.5429 27.6629 28.6811 27.719C28.8192 27.7751 28.9447 27.8584 29.0501 27.9638C29.1555 28.0692 29.2387 28.1947 29.2949 28.3328C29.351 28.471 29.3788 28.6189 29.3768 28.768Z" fill="current"/>
<path d="M23.4058 32.8996C23.3993 33.1982 23.2809 33.4834 23.074 33.6988C22.862 33.9106 22.5745 34.0296 22.2748 34.0296C21.9751 34.0296 21.6877 33.9106 21.4756 33.6988L17.3288 29.5671C17.2239 29.4612 17.1408 29.3356 17.0844 29.1976C17.028 29.0595 16.9993 28.9117 17 28.7626C17.0007 28.6135 17.0308 28.4659 17.0885 28.3284C17.1462 28.1909 17.2304 28.0661 17.3364 27.9612C17.4423 27.8562 17.5679 27.7732 17.7059 27.7168C17.844 27.6603 17.9918 27.6317 18.1409 27.6324C18.29 27.6331 18.4376 27.6631 18.5751 27.7208C18.7126 27.7786 18.8374 27.8628 18.9423 27.9687L23.074 32.1004C23.2862 32.3123 23.4055 32.5998 23.4058 32.8996Z" fill="current"/>
<path d="M19.0001 19.268C19.0001 19.568 19.1193 19.8557 19.3314 20.0677C19.5435 20.2798 19.8311 20.399 20.1311 20.399L30.2341 20.399C30.4604 20.3982 30.6814 20.3305 30.8692 20.2044C31.057 20.0783 31.2033 19.8994 31.2897 19.6903C31.3714 19.4851 31.3922 19.2606 31.3494 19.0439C31.3066 18.8272 31.2021 18.6275 31.0484 18.4689L26.9016 14.3372C26.7977 14.2305 26.6734 14.1457 26.5361 14.0878C26.3989 14.0299 26.2514 14 26.1024 14C25.9535 14 25.806 14.0299 25.6687 14.0878C25.5315 14.1457 25.4072 14.2305 25.3032 14.3372C25.0914 14.5492 24.9725 14.8366 24.9725 15.1363C24.9725 15.436 25.0914 15.7235 25.3032 15.9355L27.5048 18.1371L20.1311 18.1371C19.982 18.1351 19.834 18.1629 19.6959 18.2191C19.5578 18.2752 19.4323 18.3584 19.3269 18.4638C19.2214 18.5693 19.1382 18.6947 19.0821 18.8329C19.026 18.971 18.9981 19.119 19.0001 19.268Z" fill="current"/>
<path d="M24.9712 23.3997C24.9777 23.6982 25.0961 23.9835 25.3029 24.1989C25.515 24.4106 25.8024 24.5296 26.1021 24.5296C26.4018 24.5296 26.6893 24.4106 26.9013 24.1989L31.0481 20.0672C31.1531 19.9612 31.2361 19.8356 31.2925 19.6976C31.349 19.5596 31.3776 19.4118 31.3769 19.2626C31.3762 19.1135 31.3462 18.966 31.2885 18.8285C31.2307 18.691 31.1465 18.5662 31.0406 18.4612C30.9346 18.3563 30.8091 18.2732 30.671 18.2168C30.533 18.1604 30.3852 18.1317 30.236 18.1324C30.0869 18.1331 29.9394 18.1632 29.8019 18.2209C29.6644 18.2786 29.5396 18.3628 29.4346 18.4688L25.3029 22.6005C25.0908 22.8123 24.9715 23.0998 24.9712 23.3997Z" fill="current"/>
</svg>
