<svg width="48" height="48" viewBox="0 0 48 48" fill="none" xmlns="http://www.w3.org/2000/svg">
<path d="M18.7844 30.6417C18.5077 30.6452 18.2362 30.5661 18.0047 30.4146C17.7731 30.263 17.592 30.0459 17.4845 29.791C17.3769 29.536 17.3478 29.2548 17.4008 28.9832C17.4538 28.7116 17.5866 28.4619 17.7822 28.2662L28.2866 17.7618C28.5476 17.5011 28.9013 17.3547 29.2702 17.3547C29.6391 17.3547 29.9928 17.5011 30.2538 17.7618C30.3852 17.8897 30.4895 18.0427 30.5608 18.2116C30.632 18.3806 30.6688 18.5621 30.6688 18.7454C30.6688 18.9288 30.632 19.1103 30.5608 19.2792C30.4895 19.4481 30.3852 19.6011 30.2538 19.729L19.768 30.2334C19.6395 30.3635 19.4863 30.4667 19.3174 30.5368C19.1485 30.6069 18.9673 30.6426 18.7844 30.6417Z" fill="current"/>
<path d="M29.3258 30.6418C29.1429 30.6427 28.9617 30.607 28.7928 30.5369C28.6239 30.4668 28.4707 30.3636 28.3421 30.2335L17.7821 19.7291C17.5214 19.4681 17.375 19.1144 17.375 18.7455C17.375 18.3766 17.5214 18.0229 17.7821 17.7619C18.0485 17.5045 18.4045 17.3606 18.775 17.3606C19.1454 17.3606 19.5014 17.5045 19.7679 17.7619L30.2537 28.2663C30.385 28.3942 30.4894 28.5472 30.5607 28.7161C30.6319 28.8851 30.6686 29.0665 30.6686 29.2499C30.6686 29.4332 30.6319 29.6147 30.5607 29.7837C30.4894 29.9526 30.385 30.1056 30.2537 30.2335C30.0089 30.4846 29.6763 30.6309 29.3258 30.6418Z" fill="current"/>
<path d="M24.0183 41.9998C23.7765 42.004 23.5384 41.9397 23.3316 41.8142L8.9113 33.4998C8.69784 33.3787 8.52018 33.2034 8.39633 32.9915C8.27248 32.7797 8.20683 32.5388 8.20605 32.2934V15.7017C8.20683 15.4563 8.27248 15.2155 8.39633 15.0036C8.52018 14.7918 8.69784 14.6164 8.9113 14.4954L23.3316 6.18092C23.5444 6.06228 23.784 6 24.0276 6C24.2712 6 24.5108 6.06228 24.7236 6.18092L39.1068 14.4954C39.3181 14.6173 39.4931 14.7934 39.6138 15.0054C39.7345 15.2174 39.7965 15.4577 39.7935 15.7017V32.2934C39.7965 32.5374 39.7345 32.7777 39.6138 32.9898C39.4931 33.2018 39.3181 33.3778 39.1068 33.4998L24.7236 41.8142C24.5092 41.9377 24.2657 42.0017 24.0183 41.9998ZM11.027 31.4212L24.0183 38.8448L37.0096 31.4212V16.574L24.0183 9.15037L11.027 16.574V31.4212Z" fill="current"/>
</svg>
