<svg width="48" height="48" viewBox="0 0 48 48" fill="none" xmlns="http://www.w3.org/2000/svg">
<path d="M33.7947 34.86H14.0997C13.864 34.8621 13.6337 34.7891 13.4422 34.6516C13.2507 34.514 13.108 34.3191 13.0347 34.095L8.24973 19.5C8.17642 19.2901 8.16873 19.0629 8.22767 18.8486C8.28662 18.6342 8.40941 18.4429 8.57973 18.3C8.74794 18.1524 8.95684 18.0591 9.17902 18.0323C9.40119 18.0056 9.62627 18.0466 9.82473 18.15L18.5547 22.5L23.0547 13.77C23.1585 13.596 23.3056 13.4518 23.4818 13.3518C23.658 13.2517 23.8571 13.1991 24.0597 13.1991C24.2623 13.1991 24.4615 13.2517 24.6377 13.3518C24.8138 13.4518 24.961 13.596 25.0647 13.77L29.5647 22.515L38.3097 18.165C38.5059 18.0629 38.7284 18.0225 38.948 18.0493C39.1675 18.0761 39.3738 18.1687 39.5397 18.315C39.6833 18.4724 39.7793 18.6673 39.8165 18.8771C39.8537 19.0868 39.8305 19.3029 39.7497 19.5L34.8597 34.08C34.7891 34.3069 34.6475 34.5051 34.4558 34.6455C34.2641 34.7859 34.0324 34.8611 33.7947 34.86ZM14.9997 32.61H32.9997L36.7647 21.375L29.4597 25.005C29.3289 25.0719 29.1861 25.1122 29.0396 25.1235C28.8931 25.1348 28.7458 25.117 28.6063 25.0709C28.4668 25.0249 28.3378 24.9516 28.2268 24.8553C28.1158 24.759 28.025 24.6416 27.9597 24.51L23.9997 16.74L20.0547 24.51C19.9894 24.6416 19.8987 24.759 19.7877 24.8553C19.6767 24.9516 19.5477 25.0249 19.4082 25.0709C19.2686 25.117 19.1213 25.1348 18.9748 25.1235C18.8283 25.1122 18.6855 25.0719 18.5547 25.005L11.2197 21.33L14.9997 32.61Z" fill="current"/>
</svg>
