<svg width="48" height="48" viewBox="0 0 48 48" fill="current" xmlns="http://www.w3.org/2000/svg">
<path d="M31.4237 25.3895H16.5765C16.2073 25.3895 15.8533 25.2429 15.5923 24.9818C15.3312 24.7208 15.1846 24.3668 15.1846 23.9976C15.1846 23.6284 15.3312 23.2744 15.5923 23.0134C15.8533 22.7523 16.2073 22.6057 16.5765 22.6057H31.4237C31.7929 22.6057 32.1469 22.7523 32.4079 23.0134C32.669 23.2744 32.8156 23.6284 32.8156 23.9976C32.8156 24.3668 32.669 24.7208 32.4079 24.9818C32.1469 25.2429 31.7929 25.3895 31.4237 25.3895Z" fill="current"/>
<path d="M23.9999 41.9998C23.7525 42.0017 23.509 41.9377 23.2946 41.8142L8.9114 33.4998C8.70011 33.3778 8.52512 33.2018 8.40443 32.9898C8.28374 32.7777 8.22171 32.5374 8.22471 32.2934V15.7017C8.22171 15.4577 8.28374 15.2174 8.40443 15.0054C8.52512 14.7934 8.70011 14.6173 8.9114 14.4954L23.2946 6.18092C23.5074 6.06228 23.747 6 23.9906 6C24.2342 6 24.4738 6.06228 24.6866 6.18092L39.0698 14.4954C39.2858 14.6134 39.4657 14.788 39.5899 15.0006C39.7142 15.2131 39.7782 15.4555 39.775 15.7017V32.2934C39.7782 32.5396 39.7142 32.782 39.5899 32.9945C39.4657 33.2071 39.2858 33.3818 39.0698 33.4998L24.6866 41.8142C24.4798 41.9397 24.2417 42.004 23.9999 41.9998ZM11.0086 31.4212L23.9999 38.8448L36.9912 31.4212V16.574L23.9999 9.15037L11.0086 16.574V31.4212Z" fill="current"/>
</svg>
