<svg xmlns="http://www.w3.org/2000/svg" width="43" height="48" fill="none" viewBox="0 0 43 48">
  <path fill="#402CAC" d="M1.258 36V14.667l20.666-12 18 12V36l-20 10L1.258 36Z"/>
  <path fill="#7DFAA4" d="M31.16 25.853H11.364a1.856 1.856 0 1 1 0-3.712H31.16a1.856 1.856 0 1 1 0 3.712Z"/>
  <path fill="#7DFAA4" d="M21.26 48a1.855 1.855 0 0 1-.94-.248L1.142 36.666a1.831 1.831 0 0 1-.915-1.608V12.936a1.831 1.831 0 0 1 .915-1.609L20.32.241a1.905 1.905 0 0 1 1.856 0l19.177 11.086a1.807 1.807 0 0 1 .94 1.609v22.122a1.806 1.806 0 0 1-.94 1.608L22.176 47.752a1.707 1.707 0 0 1-.916.248ZM3.938 33.895l17.322 9.898 17.322-9.898V14.099L21.26 4.2 3.938 14.1v19.796Z"/>
</svg>
