<svg width="48" height="48" viewBox="0 0 48 48" fill="none" xmlns="http://www.w3.org/2000/svg">
<path d="M23.9999 41.9916C23.7527 41.9936 23.5094 41.9295 23.2952 41.8062L8.92261 33.5165C8.72439 33.3985 8.55816 33.2336 8.43853 33.0364C8.31889 32.8391 8.24949 32.6155 8.23643 32.3852V15.6945C8.23343 15.4507 8.29542 15.2106 8.41602 14.9987C8.53662 14.7868 8.71147 14.6109 8.92261 14.4891L23.2952 6.18079C23.5078 6.06223 23.7472 6 23.9906 6C24.234 6 24.4734 6.06223 24.6861 6.18079L39.0586 14.4891C39.2745 14.607 39.4542 14.7815 39.5784 14.9939C39.7025 15.2063 39.7665 15.4485 39.7633 15.6945V32.3852C39.7645 32.6308 39.6997 32.8722 39.5757 33.0843C39.4518 33.2963 39.2732 33.4712 39.0586 33.5907L24.6861 41.8804C24.472 41.9801 24.2345 42.0186 23.9999 41.9916ZM11.0182 31.495L23.9999 39.0059L36.9816 31.495V16.5105L23.9999 9.09239L11.0182 16.5105V31.495Z" fill="current"/>
<path d="M23.9995 31.7547C23.8162 31.7588 23.6342 31.7247 23.4649 31.6544C23.2957 31.5842 23.143 31.4794 23.0166 31.3467L17.9352 26.2839C17.6779 26.0176 17.5342 25.6619 17.5342 25.2917C17.5342 24.9215 17.6779 24.5658 17.9352 24.2995C18.196 24.039 18.5495 23.8927 18.9181 23.8927C19.2866 23.8927 19.6402 24.039 19.901 24.2995L22.6086 27.0071V17.9385C22.6086 17.5696 22.7551 17.2158 23.0159 16.955C23.2768 16.6941 23.6306 16.5476 23.9995 16.5476C24.3683 16.5476 24.7221 16.6941 24.983 16.955C25.2438 17.2158 25.3903 17.5696 25.3903 17.9385V30.3638C25.3934 30.6405 25.3139 30.9118 25.1619 31.1431C25.01 31.3743 24.7925 31.555 24.5373 31.662C24.366 31.7286 24.1831 31.7601 23.9995 31.7547Z" fill="current"/>
<path d="M23.999 31.7548C23.8163 31.7556 23.6352 31.72 23.4664 31.6499C23.2977 31.5799 23.1446 31.4768 23.0161 31.3468C22.7557 31.086 22.6094 30.7325 22.6094 30.3639C22.6094 29.9953 22.7557 29.6418 23.0161 29.381L28.0975 24.2996C28.3583 24.0391 28.7119 23.8928 29.0804 23.8928C29.449 23.8928 29.8025 24.0391 30.0633 24.2996C30.3206 24.5658 30.4643 24.9216 30.4643 25.2918C30.4643 25.662 30.3206 26.0177 30.0633 26.2839L24.9819 31.3468C24.8535 31.4768 24.7004 31.5799 24.5317 31.6499C24.3629 31.72 24.1818 31.7556 23.999 31.7548Z" fill="current"/>
</svg>
