<svg width="32" height="36" viewBox="0 0 32 36" fill="none" xmlns="http://www.w3.org/2000/svg">
<g clip-path="url(#clip0_629_3956)">
<path d="M15.9951 11.4819C16.8365 11.456 17.6494 11.6017 18.4275 11.9385C21.5905 13.3179 23.4724 16.0313 23.9247 20.0853C24.2474 22.9703 23.5136 25.5283 21.9321 27.7172C21.8625 27.8144 21.7359 27.9115 21.6347 27.9115C19.7939 27.9244 17.9498 27.9212 16.109 27.918C16.0774 27.918 16.0457 27.9115 15.9983 27.905V11.4819H15.9951Z" fill="current"/>
<path d="M15.9951 4.9347V3.28333C17.0263 3.40637 18.0479 3.42903 19.0221 3.65893C25.753 5.25202 30.0262 9.48408 31.5982 16.3745C32.5724 20.6454 31.7437 24.6962 29.4948 28.4361C29.3714 28.64 29.2386 28.7307 28.9982 28.721C28.4795 28.7016 27.9576 28.7145 27.3977 28.7145C30.7283 23.8219 31.44 18.6217 28.8622 13.2531C26.2812 7.88127 21.8372 5.25526 15.9951 4.9347Z" fill="current"/>
<path d="M4.78899 8.17269C4.78899 8.88829 4.79848 9.60389 4.7795 10.3195C4.7795 10.449 4.68778 10.5915 4.60554 10.7016C2.39144 13.6708 1.38878 17.0254 1.626 20.7491C1.81262 23.6535 2.79315 26.2698 4.51381 28.5882C4.71625 28.8602 4.80797 29.1225 4.79532 29.4625C4.77318 30.0583 4.78899 30.6573 4.78899 31.2661C3.13791 30.5019 0.518953 25.2434 0.133068 21.9536C-0.493205 16.6044 1.06615 12.0162 4.66564 8.14031C4.70676 8.15326 4.74471 8.16622 4.78583 8.17593L4.78899 8.17269Z" fill="current"/>
<path d="M31.8731 30.7804C31.7434 30.4727 31.5094 30.3011 31.1773 30.2882C31.0349 30.2817 30.8926 30.2817 30.7471 30.2817C25.4649 30.2817 20.1827 30.2817 14.9037 30.2817H14.3596V13.2628C14.3596 9.18618 14.3596 5.11279 14.3596 1.03616C14.3596 0.268753 14.0971 0.00647599 13.3475 0.00647599C10.5356 0 7.72367 0.00647599 4.91493 0C4.54802 0 4.24121 0.0874258 4.06409 0.437129C3.87747 0.803022 3.98817 1.12358 4.21907 1.43443C4.87381 2.31516 5.52223 3.1959 6.15799 4.08958C6.26869 4.24825 6.35409 4.47167 6.35409 4.66271C6.36358 13.5478 6.36358 22.4296 6.35409 31.3146C6.35409 31.4992 6.2592 31.7291 6.13268 31.8618C5.26602 32.762 4.38039 33.6492 3.49475 34.53C3.2164 34.8052 3.07723 35.1096 3.23538 35.4949C3.39353 35.8737 3.69402 36 4.08306 36C11.7312 35.9968 19.3825 36 27.0306 35.9838C27.2931 35.9838 27.6126 35.8284 27.8087 35.6406C28.6247 34.857 29.3997 34.0313 30.1904 33.2218C30.6965 32.7037 31.2057 32.1889 31.7055 31.6676C31.9459 31.415 32.0123 31.1106 31.8731 30.7836V30.7804ZM29.5293 32.2407C29.1435 32.5613 26.8471 34.8894 26.6447 34.8894C20.7584 34.8991 10.0674 34.8861 10.0674 34.8861H8.50493C7.96089 34.8861 7.51807 34.4361 7.51807 33.8856V2.71991C7.51807 2.16945 7.96089 1.71937 8.50493 1.71937H12.0696C12.6137 1.71937 13.0565 2.16945 13.0565 2.71991V31.3956C16.1562 31.3956 25.4238 31.3956 28.7892 31.3956C28.8999 31.3956 29.0106 31.3956 29.1182 31.3988C29.3744 31.4085 29.5546 31.5121 29.6527 31.6999C29.7602 31.9007 29.7096 32.0853 29.523 32.2407H29.5293Z" fill="current"/>
</g>
<defs>
<clipPath id="clip0_629_3956">
<rect width="32" height="36" fill="white"/>
</clipPath>
</defs>
</svg>
