<svg width="48" height="48" viewBox="0 0 48 48" fill="none" xmlns="http://www.w3.org/2000/svg">
<path d="M23.9837 41.9993C23.718 42.0005 23.4592 41.9142 23.2474 41.7538L12.0385 33.3758C11.8858 33.2606 11.7609 33.1126 11.6731 32.9427C11.5853 32.7727 11.5368 32.5852 11.5312 32.394V15.6216C11.5344 15.4276 11.5817 15.2369 11.6696 15.0639C11.7575 14.891 11.8837 14.7403 12.0385 14.6235L23.2965 6.24545C23.5089 6.08613 23.7673 6 24.0328 6C24.2984 6 24.5567 6.08613 24.7692 6.24545L35.978 14.6235C36.1308 14.7412 36.2545 14.8924 36.3396 15.0654C36.4247 15.2385 36.4689 15.4288 36.4689 15.6216V32.394C36.4665 32.5841 36.421 32.7711 36.336 32.9412C36.251 33.1112 36.1286 33.2598 35.978 33.3758L24.7692 41.7538C24.5428 41.9224 24.2658 42.0089 23.9837 41.9993ZM13.9857 31.7722L23.9837 39.2339L33.9653 31.7722V16.2271L23.9837 8.7654L13.9857 16.2271V31.7722Z" fill="current"/>
<path d="M23.9842 32.7211C23.7185 32.7223 23.4597 32.6361 23.2479 32.4757L18.2243 28.7285C18.071 28.6151 17.9465 28.467 17.8612 28.2964C17.7759 28.1258 17.7321 27.9374 17.7334 27.7467V20.2523C17.7321 20.0616 17.7759 19.8732 17.8612 19.7026C17.9465 19.532 18.071 19.3839 18.2243 19.2705L23.2969 15.5233C23.5094 15.364 23.7678 15.2779 24.0333 15.2779C24.2988 15.2779 24.5572 15.364 24.7696 15.5233L29.7768 19.2705C29.9302 19.3839 30.0546 19.532 30.1399 19.7026C30.2252 19.8732 30.269 20.0616 30.2677 20.2523V27.7467C30.269 27.9374 30.2252 28.1258 30.1399 28.2964C30.0546 28.467 29.9302 28.6151 29.7768 28.7285L24.7696 32.4757C24.5433 32.6443 24.2663 32.7308 23.9842 32.7211ZM20.1879 27.1413L23.9842 29.9721L27.7641 27.1413V20.8577L23.9842 18.0269L20.1879 20.8577V27.1413Z" fill="current"/>
</svg>
