<svg width="27" height="39" viewBox="0 0 27 39" fill="none" xmlns="http://www.w3.org/2000/svg">
<path d="M13.299 1.48225C16.1941 1.48767 18.8942 2.1328 21.2837 3.86401C25.4251 6.8638 26.8031 13.1073 22.1001 17.4679C20.5288 18.9244 18.9701 20.3954 17.3898 21.8429C16.4 22.75 15.7805 23.8469 15.5403 25.1661C15.4753 25.5239 15.3742 25.8745 15.2857 26.2251C14.8703 27.8732 13.8101 28.6719 12.2261 28.5328C10.653 28.3954 9.61995 27.3473 9.52604 25.7083C9.37613 23.1151 10.1491 20.8255 12.004 18.984C13.4814 17.5185 15.0527 16.1487 16.559 14.7102C17.4421 13.8663 18.235 12.9465 18.3651 11.649C18.5854 9.46422 17.4241 7.57399 15.3398 6.89452C13.7162 6.36504 12.0726 6.40479 10.4941 7.12764C9.34181 7.6535 8.69162 8.66729 8.16605 9.74794C7.75245 10.5991 7.43819 11.4972 7.0842 12.3773C6.35634 14.1862 4.83742 14.9452 3.10718 14.3633C1.85556 13.9422 0.93987 12.6646 1.00308 11.349C1.13854 8.55344 2.45157 6.33612 4.51774 4.55071C7.02821 2.37857 10.0101 1.4696 13.299 1.48225Z" stroke="current" stroke-width="2" stroke-miterlimit="10"/>
<path d="M16.0349 34.398C16.0112 36.5152 14.4695 38.0254 12.3532 37.9997C10.235 37.9739 8.71711 36.4324 8.73353 34.3262C8.74995 32.2476 10.3901 30.662 12.4955 30.697C14.5298 30.7301 16.0586 32.3286 16.0367 34.3998L16.0349 34.398Z" stroke="current" stroke-width="2" stroke-miterlimit="10"/>
</svg>
