<svg width="48" height="48" viewBox="0 0 48 48" fill="none" xmlns="http://www.w3.org/2000/svg">
<path d="M40.6962 17.1434C40.8275 17.6681 40.8824 18.2114 40.9722 18.7465C40.9932 19.0913 41.0226 19.856 40.9722 20.1563V20.1555C40.8758 20.7003 40.8076 21.2515 40.6796 21.7899C40.2566 23.5688 39.3573 25.1278 38.227 26.568C36.6429 28.5876 34.7455 30.3175 32.7766 31.9744C30.1096 34.2186 27.4234 36.442 24.7448 38.6734C24.2603 39.077 23.7533 39.1147 23.3086 38.7408C19.9559 35.9245 16.5875 33.125 13.2697 30.2702C11.6673 28.8917 10.2245 27.3544 9.04101 25.6092C7.54834 23.4083 6.76211 21.0237 7.0638 18.3686C7.36466 15.72 8.48167 13.4718 10.6733 11.7988C12.4801 10.4179 14.5654 9.8659 16.8509 10.0729C19.6418 10.3265 21.6564 11.8028 23.2214 13.9476C23.4873 14.3118 23.7184 14.6994 23.9943 15.1214C24.094 14.9553 24.178 14.8117 24.2652 14.6705C25.2659 13.0553 26.5408 11.7025 28.3077 10.8504C30.4404 9.82257 32.6619 9.74394 34.8718 10.5198C38.0907 11.6504 39.9092 13.9941 40.6962 17.1434Z" stroke="#7DFAA4" stroke-width="2" stroke-miterlimit="10"/>
</svg>
