<svg width="48" height="48" viewBox="0 0 48 48" fill="none" xmlns="http://www.w3.org/2000/svg">
<path d="M23.9996 42C23.7338 42.0012 23.4751 41.9149 23.2632 41.7545L12.0378 33.3763C11.8898 33.258 11.7692 33.1089 11.6844 32.9394C11.5997 32.7698 11.5528 32.5839 11.5469 32.3945V15.6218C11.5504 15.4296 11.5962 15.2405 11.681 15.068C11.7659 14.8955 11.8877 14.7438 12.0378 14.6236L23.2796 6.24545C23.492 6.08613 23.7504 6 24.0159 6C24.2815 6 24.5399 6.08613 24.7523 6.24545L35.9614 14.6236C36.1141 14.7413 36.2378 14.8926 36.323 15.0656C36.4081 15.2387 36.4523 15.429 36.4523 15.6218V32.3945C36.4498 32.5846 36.4044 32.7717 36.3194 32.9417C36.2344 33.1117 36.112 33.2603 35.9614 33.3763L24.7523 41.7545C24.5348 41.9161 24.2705 42.0023 23.9996 42ZM14.0014 31.7727L23.9996 39.2345L33.9814 31.7727V16.2273L23.9996 8.76545L14.0014 16.2273V31.7727Z" fill="current"/>
<path d="M19.9089 30.5453C19.5834 30.5453 19.2713 30.416 19.0411 30.1858C18.8109 29.9557 18.6816 29.6435 18.6816 29.318V18.5508C18.6816 18.2253 18.8109 17.9131 19.0411 17.6829C19.2713 17.4528 19.5834 17.3235 19.9089 17.3235C20.2344 17.3235 20.5466 17.4528 20.7767 17.6829C21.0069 17.9131 21.1362 18.2253 21.1362 18.5508V29.3344C21.1278 29.6557 20.9952 29.9613 20.7664 30.187C20.5376 30.4128 20.2303 30.5412 19.9089 30.5453Z" fill="current"/>
<path d="M28.0907 30.6763C27.9289 30.6785 27.7683 30.6483 27.6184 30.5874C27.4685 30.5265 27.3324 30.4362 27.2179 30.3218C27.1035 30.2074 27.0132 30.0712 26.9523 29.9213C26.8914 29.7714 26.8612 29.6108 26.8634 29.449V18.6654C26.8634 18.3399 26.9927 18.0278 27.2229 17.7976C27.453 17.5675 27.7652 17.4382 28.0907 17.4382C28.4162 17.4382 28.7283 17.5675 28.9585 17.7976C29.1886 18.0278 29.3179 18.3399 29.3179 18.6654V29.449C29.3179 29.7745 29.1886 30.0867 28.9585 30.3169C28.7283 30.547 28.4162 30.6763 28.0907 30.6763Z" fill="current"/>
</svg>
