<svg width="48" height="48" viewBox="0 0 48 48" fill="none" xmlns="http://www.w3.org/2000/svg">
<path d="M24.1246 5.48224C26.9787 5.48759 29.6405 6.12358 31.9961 7.83023C36.0787 10.7875 37.4372 16.9425 32.8008 21.2412C31.2518 22.6771 29.7153 24.1272 28.1573 25.5541C27.1816 26.4484 26.5709 27.5298 26.3341 28.8303C26.27 29.183 26.1703 29.5286 26.0831 29.8742C25.6736 31.4989 24.6284 32.2863 23.0669 32.1492C21.5161 32.0138 20.4977 30.9805 20.4051 29.3647C20.2573 26.8083 21.0194 24.5512 22.8479 22.7358C24.3044 21.2911 25.8534 19.9407 27.3383 18.5227C28.209 17.6907 28.9906 16.7839 29.1188 15.5048C29.336 13.351 28.1912 11.4876 26.1365 10.8178C24.5358 10.2958 22.9156 10.335 21.3595 11.0476C20.2235 11.566 19.5825 12.5654 19.0644 13.6307C18.6567 14.4698 18.3469 15.3552 17.9979 16.2228C17.2804 18.006 15.783 18.7542 14.0773 18.1806C12.8434 17.7655 11.9407 16.506 12.003 15.2091C12.1366 12.4532 13.431 10.2673 15.4679 8.50719C17.9427 6.36586 20.8823 5.46977 24.1246 5.48224Z" stroke="#7DFAA4" stroke-width="2" stroke-miterlimit="10"/>
<path d="M26.822 37.9312C26.7986 40.0184 25.2788 41.5072 23.1925 41.4818C21.1044 41.4564 19.608 39.9368 19.6242 37.8605C19.6403 35.8113 21.2572 34.2482 23.3328 34.2827C25.3382 34.3153 26.8454 35.8911 26.8238 37.933L26.822 37.9312Z" stroke="#7DFAA4" stroke-width="2" stroke-miterlimit="10"/>
</svg>
