<svg width="48" height="48" viewBox="0 0 48 48" fill="none" xmlns="http://www.w3.org/2000/svg">
<path d="M24.4833 42L13.8522 31.2609C13.6902 25.6558 11.6247 20.2774 8 16.0223C17.3554 19.5403 18.8539 26.5764 18.8539 26.5764C20.5346 18.3537 14.2774 6 14.2774 6C32.2389 28.4799 24.4833 42 24.4833 42ZM24.9693 19.9507C27.2373 14.837 30.3152 10.112 34.1019 6.00135C31.024 12.6082 29.0192 19.6848 28.2092 26.9261C28.2092 26.9261 26.8323 22.0783 24.9693 19.9507ZM40.3996 15.7374C27.8245 23.2649 29.161 36.6824 29.161 36.6824L34.8107 30.9342C34.6082 19.9912 40.3996 15.7361 40.3996 15.7361V15.7374Z" fill="current"/>
</svg>
