<svg width="48" height="48" viewBox="0 0 48 48" fill="none" xmlns="http://www.w3.org/2000/svg">
<path d="M41.9998 23.9815C42.004 24.2233 41.9397 24.4614 41.8142 24.6682L33.4998 39.0885C33.3787 39.302 33.2034 39.4796 32.9915 39.6035C32.7797 39.7273 32.5388 39.793 32.2934 39.7938H15.7017C15.4563 39.793 15.2155 39.7273 15.0036 39.6035C14.7918 39.4796 14.6164 39.302 14.4954 39.0885L6.18092 24.6682C6.06228 24.4554 6 24.2158 6 23.9722C6 23.7286 6.06228 23.489 6.18092 23.2762L14.4954 8.89302C14.6173 8.68173 14.7934 8.50674 15.0054 8.38605C15.2174 8.26537 15.4577 8.20333 15.7017 8.20634H32.2934C32.5374 8.20333 32.7777 8.26537 32.9898 8.38605C33.2018 8.50674 33.3778 8.68173 33.4998 8.89302L41.8142 23.2762C41.9377 23.4907 42.0017 23.7341 41.9998 23.9815ZM31.4212 36.9728L38.8448 23.9815L31.4212 10.9902H16.574L9.15037 23.9815L16.574 36.9728H31.4212Z" fill="current"/>
<path d="M31.7551 23.9815C31.7551 24.3506 31.6084 24.7047 31.3474 24.9657C31.0864 25.2267 30.7323 25.3734 30.3632 25.3734H17.9286C17.6502 25.3725 17.3782 25.2891 17.147 25.1339C16.9158 24.9787 16.7358 24.7585 16.6295 24.5011C16.5289 24.2486 16.5034 23.9723 16.556 23.7056C16.6087 23.4389 16.7373 23.1931 16.9264 22.9978L22.0302 17.9127C22.1581 17.7813 22.3111 17.677 22.48 17.6057C22.649 17.5345 22.8305 17.4977 23.0138 17.4977C23.1972 17.4977 23.3786 17.5345 23.5476 17.6057C23.7165 17.677 23.8695 17.7813 23.9974 17.9127C24.2581 18.1737 24.4045 18.5274 24.4045 18.8963C24.4045 19.2652 24.2581 19.6189 23.9974 19.8799L21.2878 22.5895H30.3632C30.5466 22.587 30.7288 22.6213 30.8988 22.6904C31.0688 22.7595 31.2232 22.8619 31.353 22.9917C31.4827 23.1214 31.5852 23.2758 31.6542 23.4459C31.7233 23.6159 31.7576 23.798 31.7551 23.9815Z" fill="current"/>
<path d="M24.4055 29.0665C24.3975 29.4339 24.2518 29.785 23.9972 30.0501C23.7362 30.3108 23.3824 30.4572 23.0136 30.4572C22.6447 30.4572 22.2909 30.3108 22.0299 30.0501L16.9262 24.9649C16.797 24.8346 16.6948 24.68 16.6254 24.5101C16.5559 24.3402 16.5206 24.1583 16.5215 23.9748C16.5224 23.7912 16.5594 23.6096 16.6304 23.4404C16.7014 23.2712 16.8051 23.1176 16.9355 22.9884C17.0659 22.8592 17.2204 22.757 17.3903 22.6876C17.5602 22.6181 17.7421 22.5828 17.9257 22.5837C18.1092 22.5846 18.2908 22.6216 18.46 22.6926C18.6293 22.7636 18.7829 22.8673 18.912 22.9977L23.9972 28.0829C24.2583 28.3436 24.4052 28.6974 24.4055 29.0665Z" fill="current"/>
</svg>
