<svg width="48" height="48" viewBox="0 0 48 48" fill="none" xmlns="http://www.w3.org/2000/svg">
<g clip-path="url(#clip0_3264_36078)">
<path d="M23.9951 17.4819C24.8365 17.456 25.6494 17.6017 26.4275 17.9385C29.5905 19.3179 31.4724 22.0313 31.9247 26.0853C32.2474 28.9703 31.5136 31.5283 29.9321 33.7172C29.8625 33.8144 29.7359 33.9115 29.6347 33.9115C27.7939 33.9245 25.9498 33.9212 24.109 33.918C24.0774 33.918 24.0457 33.9115 23.9983 33.905V17.4819H23.9951Z" fill="#7DFAA4"/>
<path d="M23.9951 10.9347V9.28333C25.0263 9.40637 26.0479 9.42903 27.0221 9.65893C33.753 11.252 38.0262 15.4841 39.5982 22.3745C40.5724 26.6454 39.7437 30.6962 37.4948 34.4361C37.3714 34.64 37.2386 34.7307 36.9982 34.721C36.4795 34.7016 35.9576 34.7145 35.3977 34.7145C38.7283 29.8219 39.44 24.6217 36.8622 19.2531C34.2812 13.8813 29.8372 11.2553 23.9951 10.9347V10.9347Z" fill="#7DFAA4"/>
<path d="M12.789 14.1727C12.789 14.8883 12.7985 15.6039 12.7795 16.3195C12.7795 16.449 12.6878 16.5915 12.6055 16.7016C10.3914 19.6708 9.38878 23.0254 9.626 26.7491C9.81262 29.6535 10.7931 32.2698 12.5138 34.5882C12.7162 34.8602 12.808 35.1225 12.7953 35.4625C12.7732 36.0583 12.789 36.6573 12.789 37.2661C11.1379 36.5019 8.51895 31.2434 8.13307 27.9536C7.50679 22.6044 9.06615 18.0162 12.6656 14.1403C12.7068 14.1533 12.7447 14.1662 12.7858 14.1759L12.789 14.1727Z" fill="#7DFAA4"/>
<path d="M39.8731 36.7804C39.7434 36.4727 39.5094 36.3011 39.1773 36.2882C39.0349 36.2817 38.8926 36.2817 38.7471 36.2817C33.4649 36.2817 28.1827 36.2817 22.9037 36.2817H22.3596V19.2628C22.3596 15.1862 22.3596 11.1128 22.3596 7.03616C22.3596 6.26875 22.0971 6.00648 21.3475 6.00648C18.5356 6 15.7237 6.00648 12.9149 6C12.548 6 12.2412 6.08743 12.0641 6.43713C11.8775 6.80302 11.9882 7.12358 12.2191 7.43443C12.8738 8.31516 13.5222 9.1959 14.158 10.0896C14.2687 10.2482 14.3541 10.4717 14.3541 10.6627C14.3636 19.5478 14.3636 28.4296 14.3541 37.3146C14.3541 37.4992 14.2592 37.7291 14.1327 37.8618C13.266 38.762 12.3804 39.6492 11.4947 40.53C11.2164 40.8052 11.0772 41.1096 11.2354 41.4949C11.3935 41.8737 11.694 42 12.0831 42C19.7312 41.9968 27.3825 42 35.0306 41.9838C35.2931 41.9838 35.6126 41.8284 35.8087 41.6406C36.6247 40.857 37.3997 40.0313 38.1904 39.2218C38.6965 38.7037 39.2057 38.1889 39.7055 37.6676C39.9459 37.415 40.0123 37.1106 39.8731 36.7836V36.7804ZM37.5293 38.2407C37.1435 38.5613 34.8471 40.8894 34.6447 40.8894C28.7584 40.8991 18.0674 40.8861 18.0674 40.8861H16.5049C15.9609 40.8861 15.5181 40.4361 15.5181 39.8856V8.71991C15.5181 8.16945 15.9609 7.71937 16.5049 7.71937H20.0696C20.6137 7.71937 21.0565 8.16945 21.0565 8.71991V37.3956C24.1562 37.3956 33.4238 37.3956 36.7892 37.3956C36.8999 37.3956 37.0106 37.3956 37.1182 37.3988C37.3744 37.4085 37.5546 37.5121 37.6527 37.6999C37.7602 37.9007 37.7096 38.0853 37.523 38.2407H37.5293Z" fill="#7DFAA4"/>
</g>
<defs>
<clipPath id="clip0_3264_36078">
<rect width="32" height="36" fill="white" transform="translate(8 6)"/>
</clipPath>
</defs>
</svg>
