<svg width="48" height="48" viewBox="0 0 48 48" fill="none" xmlns="http://www.w3.org/2000/svg">
<g clip-path="url(#clip0_134_552)">
<path d="M24.0001 42C20.4401 42 16.9601 40.94 14.0001 38.97C11.0401 36.99 8.73014 34.18 7.37014 30.89C6.00014 27.6 5.65014 23.98 6.35014 20.49C7.04014 17 8.76014 13.79 11.2801 11.27C13.7901 8.75 17.0001 7.04 20.4901 6.35C23.9801 5.65 27.6001 6 30.8901 7.37C34.1801 8.73 36.9901 11.04 38.9701 14C40.9501 16.96 42.0001 20.44 42.0001 24C42.0001 28.77 40.1001 33.35 36.7201 36.72C33.3401 40.09 28.7701 41.99 24.0001 42ZM24.0001 8.77C20.9901 8.77 18.0401 9.66 15.5401 11.34C13.0401 13.01 11.0801 15.39 9.93014 18.18C8.78014 20.96 8.48014 24.03 9.06014 26.98C9.65014 29.93 11.1001 32.65 13.2301 34.78C15.3601 36.91 18.0701 38.36 21.0301 38.95C23.9801 39.54 27.0501 39.24 29.8301 38.08C32.6101 36.93 34.9901 34.98 36.6701 32.47C38.3501 29.96 39.2401 27.02 39.2401 24.01C39.2401 19.97 37.6301 16.1 34.7701 13.25C31.9101 10.39 28.0401 8.79 24.0101 8.78L24.0001 8.77Z" fill="current"/>
<path d="M28.7998 19.36C28.6398 19.18 28.3998 18.99 28.0898 18.79C27.7798 18.59 27.4098 18.4 26.9998 18.23C26.5898 18.06 26.1398 17.92 25.6398 17.79C25.1498 17.67 24.6398 17.61 24.1298 17.61C23.0098 17.61 22.1798 17.82 21.6298 18.24C21.0798 18.66 20.8098 19.24 20.8098 19.98C20.8098 20.53 20.9598 20.97 21.2698 21.29C21.5798 21.61 22.0498 21.88 22.6798 22.08C23.3098 22.28 24.0998 22.5 25.0598 22.72C26.2198 22.99 27.2298 23.33 28.0898 23.71C28.9498 24.1 29.5998 24.61 30.0498 25.24C30.4998 25.87 30.7298 26.71 30.7298 27.76C30.7298 28.62 30.5698 29.36 30.2398 29.99C29.9098 30.62 29.4598 31.13 28.8798 31.53C28.2998 31.93 27.6198 32.22 26.8598 32.41C26.0898 32.6 25.2798 32.7 24.4198 32.7C23.5598 32.7 22.6898 32.61 21.8398 32.42C20.9898 32.23 20.1898 31.97 19.4298 31.62C18.6698 31.27 17.9598 30.85 17.2998 30.35L18.5598 28.02C18.7698 28.23 19.0698 28.46 19.4598 28.71C19.8498 28.96 20.2998 29.2 20.8298 29.42C21.3598 29.65 21.9298 29.84 22.5498 29.99C23.1698 30.14 23.8098 30.22 24.4798 30.22C25.5598 30.22 26.3898 30.03 26.9498 29.65C27.5198 29.27 27.7998 28.72 27.7998 27.99C27.7998 27.42 27.6198 26.97 27.2498 26.62C26.8898 26.27 26.3498 25.98 25.6398 25.74C24.9298 25.5 24.0698 25.26 23.0698 25.01C21.9498 24.72 21.0098 24.39 20.2498 24.02C19.4798 23.65 18.9098 23.18 18.5398 22.61C18.1698 22.04 17.9798 21.31 17.9798 20.4C17.9798 19.27 18.2498 18.31 18.7998 17.53C19.3498 16.75 20.0998 16.16 21.0398 15.76C21.9798 15.36 23.0398 15.17 24.1998 15.17C25.0098 15.17 25.7498 15.25 26.4398 15.42C27.1298 15.59 27.7698 15.82 28.3798 16.11C28.9898 16.4 29.5298 16.73 30.0198 17.1L28.8098 19.33L28.7998 19.36ZM23.3998 12.77H24.8798V16.48L23.3998 16.7V12.77ZM23.3998 31.28L24.8798 31.3V35.23H23.3998V31.28ZM23.5698 30.97V16.91L24.7098 16.72V30.99L23.5698 30.97Z" fill="current"/>
</g>
<defs>
<clipPath id="clip0_134_552">
<rect width="36" height="36" fill="white" transform="translate(6 6)"/>
</clipPath>
</defs>
</svg>
