<svg width="48" height="48" viewBox="0 0 48 48" fill="none" xmlns="http://www.w3.org/2000/svg">
<path d="M24.4557 40.9797C21.6692 40.9598 18.9277 40.2744 16.4596 38.9807C16.1163 38.7937 15.8582 38.4817 15.7391 38.1094C15.62 37.7371 15.6489 37.3331 15.8199 36.9816C16.0031 36.6346 16.3151 36.3733 16.6888 36.2537C17.0626 36.1341 17.4683 36.1658 17.819 36.3419C20.6993 37.823 23.9892 38.3081 27.1744 37.7213C29.7217 37.2186 32.0873 36.0407 34.0236 34.3109C35.96 32.5811 37.3961 30.3629 38.1818 27.8881C38.9675 25.4133 39.0739 22.7729 38.4899 20.243C37.9059 17.713 36.653 15.3864 34.8621 13.5064C33.0712 11.6263 30.8081 10.262 28.3095 9.55589C25.8108 8.84982 23.1684 8.82798 20.6584 9.49265C18.1484 10.1573 15.8631 11.4841 14.0413 13.3343C12.2196 15.1844 10.9284 17.49 10.3026 20.01C9.40273 23.7492 10.0133 27.6925 12.0018 30.9846C12.1898 31.3185 12.2427 31.7118 12.1498 32.0835C12.0568 32.4553 11.8251 32.7774 11.5021 32.9836C11.1681 33.1716 10.7749 33.2245 10.4031 33.1316C10.0313 33.0386 9.70926 32.8068 9.50304 32.4838C8.0431 30.0699 7.19013 27.338 7.0172 24.5223C6.84427 21.7065 7.35654 18.8908 8.51012 16.3164C9.6637 13.7419 11.4242 11.4855 13.6408 9.74048C15.8574 7.99544 18.464 6.81377 21.2373 6.29672C25.7994 5.44579 30.5127 6.44201 34.3403 9.06623C38.1679 11.6905 40.7963 15.7277 41.6472 20.2898C42.4982 24.852 41.5019 29.5653 38.8777 33.3929C36.2535 37.2205 32.2163 39.8489 27.6541 40.6998C26.5977 40.8822 25.5278 40.9758 24.4557 40.9797Z" fill="current"/>
<path d="M8.96328 41.9992C8.48403 42.0107 8.00968 41.9006 7.58446 41.6793C7.15925 41.4579 6.79702 41.1324 6.53157 40.7333C6.26611 40.3341 6.10608 39.8742 6.06639 39.3964C6.0267 38.9187 6.10865 38.4387 6.30459 38.0012L9.36309 31.1645C9.44087 30.9804 9.55516 30.814 9.69904 30.6753C9.84293 30.5366 10.0134 30.4285 10.2002 30.3575C10.3871 30.2865 10.5863 30.2541 10.786 30.2622C10.9857 30.2704 11.1817 30.3189 11.3621 30.4049C11.7266 30.5707 12.0109 30.8738 12.1532 31.2481C12.2954 31.6225 12.2841 32.0379 12.1217 32.4039L9.26313 38.9007L16.5995 36.282C16.7882 36.1992 16.992 36.1562 17.198 36.1556C17.4041 36.1551 17.6081 36.197 17.7972 36.2788C17.9864 36.3606 18.1566 36.4805 18.2973 36.6311C18.4381 36.7816 18.5462 36.9596 18.6151 37.1538C18.684 37.348 18.7121 37.5544 18.6976 37.7599C18.6832 37.9655 18.6265 38.1659 18.5312 38.3486C18.4358 38.5312 18.3039 38.6923 18.1435 38.8217C17.9831 38.9511 17.7978 39.0461 17.599 39.1006L9.90282 41.8393C9.60206 41.9496 9.28361 42.0038 8.96328 41.9992Z" fill="current"/>
<path d="M30.2932 21.5095H18.2991C17.9014 21.5095 17.5201 21.3515 17.2389 21.0703C16.9578 20.7892 16.7998 20.4078 16.7998 20.0102C16.7998 19.6126 16.9578 19.2312 17.2389 18.9501C17.5201 18.6689 17.9014 18.5109 18.2991 18.5109H30.2932C30.6908 18.5109 31.0721 18.6689 31.3533 18.9501C31.6345 19.2312 31.7924 19.6126 31.7924 20.0102C31.7924 20.4078 31.6345 20.7892 31.3533 21.0703C31.0721 21.3515 30.6908 21.5095 30.2932 21.5095Z" fill="current"/>
<path d="M30.2932 29.5055H18.2991C17.9014 29.5055 17.5201 29.3476 17.2389 29.0664C16.9578 28.7852 16.7998 28.4039 16.7998 28.0063C16.7998 27.6086 16.9578 27.2273 17.2389 26.9461C17.5201 26.665 17.9014 26.507 18.2991 26.507H30.2932C30.6908 26.507 31.0721 26.665 31.3533 26.9461C31.6345 27.2273 31.7924 27.6086 31.7924 28.0063C31.7924 28.4039 31.6345 28.7852 31.3533 29.0664C31.0721 29.3476 30.6908 29.5055 30.2932 29.5055Z" fill="current"/>
</svg>
