<svg width="48" height="48" viewBox="0 0 48 48" fill="none" xmlns="http://www.w3.org/2000/svg">
<path d="M6.00019 24.0185C5.99597 23.7767 6.06031 23.5386 6.18579 23.3318L14.5002 8.91148C14.6213 8.69802 14.7966 8.52036 15.0085 8.39651C15.2203 8.27266 15.4612 8.20702 15.7066 8.20624L32.2983 8.20624C32.5437 8.20702 32.7845 8.27266 32.9964 8.39651C33.2082 8.52036 33.3836 8.69802 33.5046 8.91148L41.8191 23.3318C41.9377 23.5446 42 23.7842 42 24.0278C42 24.2714 41.9377 24.511 41.8191 24.7238L33.5046 39.107C33.3827 39.3183 33.2066 39.4933 32.9946 39.6139C32.7826 39.7346 32.5423 39.7967 32.2983 39.7937H15.7066C15.4626 39.7967 15.2223 39.7346 15.0102 39.6139C14.7982 39.4933 14.6222 39.3183 14.5002 39.107L6.18579 24.7238C6.06235 24.5093 5.99828 24.2659 6.00019 24.0185ZM16.5788 11.0272L9.15523 24.0185L16.5788 37.0098H31.426L38.8496 24.0185L31.426 11.0272L16.5788 11.0272Z" fill="current"/>
<path d="M16.2449 24.0185C16.2449 23.6494 16.3916 23.2953 16.6526 23.0343C16.9136 22.7733 17.2677 22.6266 17.6368 22.6266H30.0714C30.3498 22.6275 30.6218 22.7109 30.853 22.8661C31.0842 23.0213 31.2642 23.2415 31.3705 23.4989C31.4711 23.7514 31.4966 24.0277 31.444 24.2944C31.3913 24.5611 31.2627 24.8069 31.0736 25.0022L25.9698 30.0873C25.8419 30.2187 25.6889 30.323 25.52 30.3943C25.351 30.4655 25.1695 30.5023 24.9862 30.5023C24.8028 30.5023 24.6214 30.4655 24.4524 30.3943C24.2835 30.323 24.1305 30.2187 24.0026 30.0873C23.7419 29.8263 23.5955 29.4726 23.5955 29.1037C23.5955 28.7348 23.7419 28.3811 24.0026 28.1201L26.7122 25.4105H17.6368C17.4534 25.413 17.2712 25.3787 17.1012 25.3096C16.9312 25.2405 16.7768 25.1381 16.647 25.0083C16.5173 24.8786 16.4148 24.7242 16.3458 24.5541C16.2767 24.3841 16.2424 24.202 16.2449 24.0185Z" fill="current"/>
<path d="M23.5945 18.9335C23.6025 18.5661 23.7482 18.215 24.0028 17.9499C24.2638 17.6892 24.6176 17.5428 24.9864 17.5428C25.3553 17.5428 25.7091 17.6892 25.9701 17.9499L31.0738 23.0351C31.203 23.1654 31.3052 23.32 31.3746 23.4899C31.4441 23.6598 31.4794 23.8417 31.4785 24.0252C31.4776 24.2088 31.4406 24.3904 31.3696 24.5596C31.2986 24.7288 31.1949 24.8824 31.0645 25.0116C30.9341 25.1408 30.7796 25.243 30.6097 25.3124C30.4398 25.3819 30.2579 25.4172 30.0743 25.4163C29.8908 25.4154 29.7092 25.3784 29.54 25.3074C29.3707 25.2364 29.2171 25.1327 29.088 25.0023L24.0028 19.9171C23.7417 19.6564 23.5948 19.3026 23.5945 18.9335Z" fill="current"/>
</svg>
