<svg width="48" height="48" viewBox="0 0 48 48" fill="none" xmlns="http://www.w3.org/2000/svg">
<path d="M19.0783 32.1538C16.4919 32.1538 13.9635 31.3869 11.813 29.95C9.66239 28.5131 7.98623 26.4707 6.99644 24.0812C6.00664 21.6917 5.74767 19.0624 6.25226 16.5257C6.75685 13.9891 8.00235 11.659 9.83125 9.83015C11.6602 8.00131 13.9903 6.75585 16.5271 6.25128C19.0638 5.7467 21.6933 6.00567 24.0828 6.99543C26.4724 7.98519 28.5148 9.66129 29.9518 11.8118C31.3887 13.9623 32.1557 16.4906 32.1557 19.0769C32.1557 22.5451 30.7779 25.8713 28.3254 28.3237C25.873 30.7761 22.5467 32.1538 19.0783 32.1538ZM19.0783 8.61539C17.0092 8.61539 14.9865 9.22895 13.266 10.3785C11.5456 11.528 10.2047 13.1619 9.41282 15.0735C8.62098 16.9851 8.4138 19.0885 8.81748 21.1179C9.22115 23.1472 10.2176 25.0113 11.6807 26.4743C13.1438 27.9374 15.0079 28.9338 17.0373 29.3374C19.0667 29.7411 21.1703 29.5339 23.0819 28.7421C24.9936 27.9503 26.6275 26.6094 27.7771 24.889C28.9267 23.1686 29.5402 21.146 29.5402 19.0769C29.5402 16.3024 28.438 13.6414 26.476 11.6795C24.514 9.71758 21.853 8.61539 19.0783 8.61539Z" fill="current"/>
<path d="M38.694 39.9999C38.5222 40.0007 38.352 39.9671 38.1933 39.9013C38.0346 39.8354 37.8906 39.7385 37.7699 39.6163L26.4885 28.3178C26.3592 28.1992 26.255 28.0558 26.1822 27.8962C26.1094 27.7365 26.0695 27.5638 26.0649 27.3884C26.0603 27.213 26.091 27.0385 26.1552 26.8752C26.2195 26.7119 26.3159 26.5632 26.4388 26.4379C26.5617 26.3127 26.7086 26.2135 26.8706 26.1462C27.0327 26.0789 27.2066 26.0449 27.3821 26.0462C27.5576 26.0475 27.731 26.0842 27.892 26.1539C28.053 26.2236 28.1983 26.3251 28.3193 26.4522L39.6182 37.7506C39.8631 37.9958 40.0006 38.3282 40.0006 38.6747C40.0006 39.0213 39.8631 39.3536 39.6182 39.5988C39.4989 39.7242 39.3556 39.8244 39.1969 39.8933C39.0381 39.9621 38.8671 39.9984 38.694 39.9999Z" fill="current"/>
</svg>
