<svg width="48" height="48" viewBox="0 0 48 48" fill="none" xmlns="http://www.w3.org/2000/svg">
<path d="M18.9439 39.094C18.1912 39.0848 17.4533 38.8841 16.7997 38.5106C16.0805 38.0989 15.4983 37.4848 15.1255 36.7447C14.7527 36.0047 14.6057 35.1713 14.7028 34.3484L14.9866 31.6524C15.0317 31.2499 14.9475 30.8435 14.7463 30.492C14.545 30.1405 14.2372 29.8622 13.8672 29.6974L11.3762 28.6095C10.6048 28.2789 9.94748 27.7292 9.48553 27.0286C9.02357 26.328 8.77734 25.5072 8.77734 24.668C8.77734 23.8288 9.02357 23.008 9.48553 22.3074C9.94748 21.6068 10.6048 21.0571 11.3762 20.7265L13.8672 19.6386C14.2372 19.4738 14.545 19.1955 14.7463 18.844C14.9475 18.4925 15.0317 18.0861 14.9866 17.6836L14.7028 15.0507C14.6072 14.2259 14.7548 13.3911 15.1276 12.6492C15.5004 11.9072 16.082 11.2905 16.8009 10.8749C17.5197 10.4594 18.3444 10.2631 19.1734 10.3103C20.0024 10.3576 20.7994 10.6462 21.4665 11.1407L23.658 12.7173C23.9826 12.9555 24.3747 13.084 24.7773 13.084C25.18 13.084 25.5721 12.9555 25.8967 12.7173L28.0882 11.1407C28.7552 10.6462 29.5523 10.3576 30.3813 10.3103C31.2103 10.2631 32.035 10.4594 32.7538 10.8749C33.4727 11.2905 34.0543 11.9072 34.4271 12.6492C34.7999 13.3911 34.9475 14.2259 34.8519 15.0507L34.5681 17.7467C34.523 18.1492 34.6071 18.5556 34.8084 18.907C35.0096 19.2585 35.3175 19.5368 35.6875 19.7017L38.1785 20.7895C38.9498 21.1202 39.6072 21.6698 40.0692 22.3705C40.5311 23.0711 40.7773 23.8918 40.7773 24.7311C40.7773 25.5703 40.5311 26.391 40.0692 27.0916C39.6072 27.7923 38.9498 28.3419 38.1785 28.6726L35.6875 29.7604C35.3175 29.9253 35.0096 30.2036 34.8084 30.5551C34.6071 30.9065 34.523 31.3129 34.5681 31.7154L34.8519 34.4114C34.9335 35.2311 34.7756 36.0568 34.3973 36.7884C34.019 37.5201 33.4365 38.1263 32.7205 38.5335C32.0046 38.9407 31.1858 39.1315 30.3636 39.0826C29.5414 39.0338 28.751 38.7475 28.0882 38.2584L25.8967 36.6817C25.5721 36.4435 25.18 36.3151 24.7773 36.3151C24.3747 36.3151 23.9826 36.4435 23.658 36.6817L21.4665 38.2584C20.7353 38.797 19.852 39.0895 18.9439 39.094ZM18.9439 12.67C18.6059 12.6774 18.2752 12.7695 17.9822 12.938C17.6595 13.1202 17.3985 13.3946 17.2328 13.7261C17.067 14.0575 17.0041 14.4309 17.052 14.7984L17.3358 17.4944C17.4393 18.3947 17.2518 19.3044 16.8006 20.0903C16.3495 20.8762 15.6585 21.497 14.8289 21.8616L12.3379 22.9652C12.0003 23.1124 11.7131 23.3549 11.5113 23.663C11.3096 23.971 11.2021 24.3313 11.2021 24.6995C11.2021 25.0678 11.3096 25.428 11.5113 25.7361C11.7131 26.0441 12.0003 26.2866 12.3379 26.4338L14.8289 27.5374C15.6585 27.902 16.3495 28.5228 16.8006 29.3087C17.2518 30.0946 17.4393 31.0044 17.3358 31.9046L17.052 34.6006C17.0041 34.9681 17.067 35.3415 17.2328 35.673C17.3985 36.0044 17.6595 36.2788 17.9822 36.461C18.3 36.6451 18.6645 36.7327 19.0313 36.7131C19.398 36.6935 19.7511 36.5675 20.0475 36.3507L22.239 34.774C22.9701 34.2362 23.854 33.9461 24.7616 33.9461C25.6692 33.9461 26.5531 34.2362 27.2842 34.774L29.4756 36.3507C29.7736 36.5708 30.1297 36.6986 30.4996 36.7182C30.8696 36.7378 31.2372 36.6484 31.5568 36.461C31.8795 36.2788 32.1404 36.0044 32.3061 35.673C32.4719 35.3415 32.5348 34.9681 32.487 34.6006L32.2032 31.9046C32.1008 31.0025 32.2907 30.0914 32.7448 29.3053C33.1989 28.5192 33.8932 27.8995 34.7257 27.5374L37.201 26.4338C37.5386 26.2866 37.8259 26.0441 38.0276 25.7361C38.2294 25.428 38.3368 25.0678 38.3368 24.6995C38.3368 24.3313 38.2294 23.971 38.0276 23.663C37.8259 23.3549 37.5386 23.1124 37.201 22.9652L34.71 21.8616C33.8804 21.497 33.1894 20.8762 32.7383 20.0903C32.2872 19.3044 32.0996 18.3947 32.2032 17.4944L32.487 14.7984C32.5276 14.4351 32.4622 14.0679 32.2985 13.741C32.1349 13.4141 31.8801 13.1417 31.5649 12.9566C31.2497 12.7714 30.8876 12.6816 30.5224 12.6979C30.1573 12.7142 29.8046 12.8359 29.5072 13.0484L27.3157 14.625C26.5846 15.1628 25.7007 15.4529 24.7931 15.4529C23.8855 15.4529 23.0016 15.1628 22.2705 14.625L20.0475 13.0484C19.7292 12.8082 19.3426 12.6756 18.9439 12.67Z" fill="current"/>
<path d="M24.7774 29.7289C23.7827 29.7289 22.8103 29.4339 21.9833 28.8813C21.1562 28.3286 20.5115 27.5432 20.1309 26.6242C19.7502 25.7052 19.6506 24.6939 19.8447 23.7183C20.0387 22.7427 20.5177 21.8466 21.2211 21.1432C21.9245 20.4398 22.8206 19.9608 23.7962 19.7668C24.7719 19.5727 25.7831 19.6723 26.7021 20.053C27.6211 20.4336 28.4066 21.0783 28.9592 21.9053C29.5118 22.7324 29.8068 23.7048 29.8068 24.6995C29.8068 26.0334 29.2769 27.3126 28.3337 28.2558C27.3905 29.199 26.1113 29.7289 24.7774 29.7289ZM24.7774 22.035C24.2504 22.035 23.7353 22.1913 23.2971 22.4841C22.859 22.7769 22.5174 23.193 22.3158 23.6799C22.1141 24.1667 22.0614 24.7025 22.1642 25.2193C22.267 25.7362 22.5207 26.2109 22.8934 26.5836C23.266 26.9562 23.7408 27.21 24.2576 27.3128C24.7745 27.4156 25.3102 27.3628 25.7971 27.1612C26.2839 26.9595 26.7001 26.618 26.9929 26.1798C27.2856 25.7416 27.4419 25.2265 27.4419 24.6995C27.4419 23.9928 27.1612 23.3151 26.6615 22.8154C26.1618 22.3158 25.4841 22.035 24.7774 22.035Z" fill="current"/>
</svg>
