<svg width="48" height="48" viewBox="0 0 48 48" fill="none" xmlns="http://www.w3.org/2000/svg">
<path d="M13.74 29.865C12.58 29.865 11.4461 29.521 10.4816 28.8766C9.51709 28.2321 8.76536 27.3161 8.32145 26.2444C7.87754 25.1727 7.76139 23.9935 7.9877 22.8558C8.214 21.7181 8.77259 20.6731 9.59282 19.8528C10.4131 19.0326 11.4581 18.474 12.5958 18.2477C13.7335 18.0214 14.9128 18.1375 15.9844 18.5814C17.0561 19.0254 17.9721 19.7771 18.6166 20.7416C19.261 21.7061 19.605 22.84 19.605 24C19.601 25.5543 18.9819 27.0438 17.8828 28.1428C16.7838 29.2418 15.2943 29.861 13.74 29.865ZM13.74 20.385C13.025 20.385 12.3261 20.597 11.7316 20.9942C11.1371 21.3915 10.6738 21.956 10.4002 22.6166C10.1266 23.2772 10.055 24.004 10.1945 24.7052C10.3339 25.4065 10.6782 26.0506 11.1838 26.5562C11.6894 27.0618 12.3335 27.406 13.0348 27.5455C13.736 27.685 14.4628 27.6134 15.1234 27.3398C15.784 27.0662 16.3485 26.6029 16.7458 26.0084C17.143 25.4139 17.355 24.715 17.355 24C17.355 23.0412 16.9741 22.1217 16.2962 21.4438C15.6182 20.7659 14.6988 20.385 13.74 20.385Z" fill="current"/>
<path d="M34.2595 20.385C33.0995 20.385 31.9656 20.041 31.0011 19.3966C30.0366 18.7521 29.2849 17.8361 28.841 16.7644C28.3971 15.6928 28.2809 14.5135 28.5072 13.3758C28.7335 12.2381 29.2921 11.1931 30.1124 10.3728C30.9326 9.55258 31.9776 8.994 33.1153 8.7677C34.253 8.54139 35.4323 8.65754 36.504 9.10145C37.5757 9.54536 38.4916 10.2971 39.1361 11.2616C39.7806 12.2261 40.1245 13.36 40.1245 14.52C40.1206 16.0743 39.5014 17.5638 38.4023 18.6628C37.3033 19.7619 35.8138 20.381 34.2595 20.385ZM34.2595 10.92C33.5439 10.92 32.8444 11.1324 32.2496 11.5303C31.6548 11.9282 31.1915 12.4937 30.9183 13.1551C30.6451 13.8165 30.5744 14.5441 30.7151 15.2458C30.8558 15.9474 31.2016 16.5915 31.7087 17.0965C32.2158 17.6015 32.8613 17.9446 33.5635 18.0824C34.2657 18.2201 34.9931 18.1464 35.6534 17.8705C36.3136 17.5946 36.8772 17.1289 37.2726 16.5325C37.668 15.936 37.8775 15.2356 37.8745 14.52C37.8706 13.5638 37.488 12.6482 36.8104 11.9735C36.1329 11.2988 35.2157 10.92 34.2595 10.92Z" fill="current"/>
<path d="M34.2595 39.33C33.0989 39.33 31.9644 38.9856 30.9995 38.3405C30.0347 37.6954 29.283 36.7785 28.8395 35.706C28.3961 34.6334 28.2808 33.4534 28.5083 32.3153C28.7359 31.1772 29.2959 30.1321 30.1177 29.3125C30.9394 28.4929 31.9858 27.9355 33.1245 27.7109C34.2632 27.4863 35.4429 27.6046 36.5144 28.0508C37.5858 28.497 38.5007 29.251 39.1434 30.2175C39.786 31.184 40.1275 32.3194 40.1245 33.48C40.1205 35.0329 39.5009 36.5208 38.4014 37.6175C37.3019 38.7141 35.8124 39.33 34.2595 39.33ZM34.2595 29.865C33.5445 29.865 32.8456 30.077 32.2511 30.4742C31.6566 30.8715 31.1933 31.436 30.9197 32.0966C30.6461 32.7572 30.5745 33.484 30.714 34.1853C30.8535 34.8865 31.1978 35.5306 31.7033 36.0362C32.2089 36.5418 32.853 36.8861 33.5543 37.0255C34.2555 37.165 34.9824 37.0934 35.6429 36.8198C36.3035 36.5462 36.8681 36.0829 37.2653 35.4884C37.6625 34.8939 37.8745 34.195 37.8745 33.48C37.8745 32.5212 37.4936 31.6018 36.8157 30.9238C36.1378 30.2459 35.2183 29.865 34.2595 29.865Z" fill="current"/>
<path d="M30.3446 31.92C30.1517 31.9181 29.9618 31.8719 29.7896 31.785L17.9096 24.975C17.7388 24.8764 17.5974 24.7341 17.4998 24.5628C17.4023 24.3914 17.3521 24.1972 17.3546 24C17.3582 23.7987 17.4157 23.602 17.5213 23.4305C17.6268 23.259 17.7765 23.1189 17.9546 23.025L30.2246 16.71C30.4911 16.5728 30.8013 16.547 31.0868 16.6384C31.3723 16.7299 31.6098 16.931 31.7471 17.1975C31.8843 17.464 31.9101 17.7742 31.8186 18.0597C31.7272 18.3452 31.5261 18.5828 31.2596 18.72L20.8346 24L30.9146 29.76C31.13 29.884 31.2983 30.0758 31.3932 30.3055C31.4881 30.5352 31.5042 30.7899 31.4391 31.0297C31.374 31.2696 31.2313 31.4811 31.0333 31.6313C30.8353 31.7815 30.5931 31.8619 30.3446 31.86V31.92Z" fill="current"/>
</svg>
