<svg width="48" height="48" viewBox="0 0 48 48" fill="none" xmlns="http://www.w3.org/2000/svg">
<path d="M23.7 39.5216C10.65 39.5216 10.5 26.5166 10.5 26.3816V14.2466C10.5079 14.0406 10.5722 13.8407 10.6859 13.6687C10.7997 13.4968 10.9585 13.3594 11.145 13.2716L23.22 7.60157C23.3712 7.5346 23.5347 7.5 23.7 7.5C23.8653 7.5 24.0288 7.5346 24.18 7.60157L36.255 13.2716C36.4483 13.3628 36.6116 13.5071 36.7258 13.6878C36.8401 13.8684 36.9005 14.0778 36.9 14.2916V26.4266C36.9 26.5166 36.75 39.5216 23.7 39.5216ZM12.75 14.9666V26.3816C12.75 26.7716 12.915 37.2716 23.7 37.2716C34.485 37.2716 34.65 26.7716 34.65 26.3816V14.9666L23.7 9.82157L12.75 14.9666Z" fill="current"/>
<path d="M11.6998 24.8966C11.4462 24.8976 11.1997 24.8129 11.0003 24.6562C10.8009 24.4996 10.6603 24.2801 10.6012 24.0335C10.5422 23.7869 10.5682 23.5276 10.675 23.2976C10.7818 23.0677 10.9632 22.8805 11.1898 22.7666L23.2648 16.6766C23.425 16.5949 23.6024 16.5523 23.7823 16.5523C23.9621 16.5523 24.1395 16.5949 24.2998 16.6766L35.9248 22.7816C36.0686 22.8422 36.1983 22.9322 36.3055 23.0457C36.4127 23.1592 36.4951 23.2937 36.5475 23.4408C36.5999 23.5879 36.621 23.7442 36.6097 23.9C36.5983 24.0557 36.5547 24.2073 36.4816 24.3452C36.4084 24.4832 36.3074 24.6044 36.1848 24.7011C36.0623 24.7979 35.921 24.8681 35.7698 24.9072C35.6187 24.9464 35.4611 24.9537 35.307 24.9286C35.1529 24.9035 35.0057 24.8466 34.8748 24.7616L23.6998 18.9416L12.1498 24.7766C12.0089 24.8452 11.8561 24.886 11.6998 24.8966Z" fill="current"/>
</svg>
