<svg width="48" height="48" viewBox="0 0 48 48" fill="none" xmlns="http://www.w3.org/2000/svg">
<path d="M23.7 39.5666C10.65 39.5666 10.5 26.5616 10.5 26.4266V14.2916C10.4995 14.0778 10.5599 13.8684 10.6742 13.6878C10.7884 13.5071 10.9517 13.3628 11.145 13.2716L23.22 7.60157C23.3712 7.5346 23.5347 7.5 23.7 7.5C23.8653 7.5 24.0288 7.5346 24.18 7.60157L36.255 13.2716C36.4483 13.3628 36.6116 13.5071 36.7258 13.6878C36.8401 13.8684 36.9005 14.0778 36.9 14.2916V26.4266C36.9 26.5316 36.75 39.5666 23.7 39.5666ZM12.75 15.0116V26.4266C12.75 26.8766 12.915 37.3166 23.7 37.3166C34.485 37.3166 34.65 26.8166 34.65 26.4266V15.0116L23.7 9.86657L12.75 15.0116Z" fill="current"/>
<path d="M32.4153 36.2066C32.2674 36.2073 32.121 36.1784 31.9845 36.1218C31.848 36.0651 31.7241 35.9817 31.6203 35.8766L10.8303 15.0866C10.6315 14.8733 10.5234 14.5912 10.5285 14.2998C10.5336 14.0083 10.6517 13.7303 10.8578 13.5241C11.0639 13.318 11.342 13.1999 11.6335 13.1948C11.9249 13.1897 12.207 13.2978 12.4203 13.4966L33.2103 34.2866C33.3164 34.39 33.4007 34.5136 33.4583 34.6501C33.5159 34.7867 33.5456 34.9334 33.5456 35.0816C33.5456 35.2298 33.5159 35.3764 33.4583 35.513C33.4007 35.6495 33.3164 35.7731 33.2103 35.8766C33.108 35.9839 32.9845 36.0686 32.8476 36.1255C32.7107 36.1823 32.5634 36.2099 32.4153 36.2066Z" fill="current"/>
<path d="M14.9699 36.2216C14.6729 36.2151 14.3892 36.0973 14.1749 35.8916C13.9669 35.6762 13.8506 35.3885 13.8506 35.0891C13.8506 34.7896 13.9669 34.5019 14.1749 34.2866L34.9799 13.4966C35.1932 13.2978 35.4752 13.1897 35.7667 13.1948C36.0582 13.1999 36.3362 13.318 36.5423 13.5241C36.7485 13.7303 36.8665 14.0083 36.8717 14.2998C36.8768 14.5912 36.7686 14.8733 36.5699 15.0866L15.7649 35.8916C15.5541 36.1026 15.2682 36.2213 14.9699 36.2216Z" fill="current"/>
</svg>
