<svg width="48" height="48" viewBox="0 0 48 48" fill="none" xmlns="http://www.w3.org/2000/svg">
<path d="M16.8303 38.055C16.1761 38.0746 15.5334 37.8797 15.0003 37.5C14.4857 37.1279 14.1023 36.6021 13.9056 35.9983C13.7088 35.3945 13.7087 34.7439 13.9053 34.14L15.7953 28.305C15.8437 28.152 15.8438 27.9878 15.7954 27.8348C15.7471 27.6818 15.6528 27.5474 15.5253 27.45L10.5603 23.85C10.0208 23.482 9.61619 22.948 9.40781 22.329C9.19942 21.7101 9.19868 21.0401 9.40571 20.4207C9.61273 19.8014 10.0162 19.2665 10.5549 18.8972C11.0935 18.528 11.738 18.3447 12.3903 18.375H18.5253C18.6857 18.376 18.8421 18.3255 18.9717 18.231C19.1013 18.1365 19.1972 18.003 19.2453 17.85L21.1353 12C21.3348 11.3989 21.7194 10.8763 22.2341 10.5072C22.7487 10.1381 23.367 9.94126 24.0003 9.945C24.6336 9.94126 25.2519 10.1381 25.7666 10.5072C26.2812 10.8763 26.6658 11.3989 26.8653 12L28.7553 17.85C28.8034 18.003 28.8993 18.1365 29.0289 18.231C29.1585 18.3255 29.3149 18.376 29.4753 18.375H35.6103C36.2492 18.3682 36.8735 18.5656 37.3925 18.9383C37.9114 19.3111 38.2977 19.8398 38.4952 20.4474C38.6927 21.055 38.6911 21.7098 38.4906 22.3164C38.29 22.9231 37.9011 23.4498 37.3803 23.82L32.4153 27.435C32.2873 27.5285 32.1922 27.6602 32.1437 27.8111C32.0952 27.962 32.0958 28.1244 32.1453 28.275L34.0353 34.11C34.2452 34.7117 34.2581 35.3647 34.072 35.9742C33.8859 36.5837 33.5105 37.1181 33.0003 37.5C32.4865 37.8754 31.8667 38.0778 31.2303 38.0778C30.594 38.0778 29.9741 37.8754 29.4603 37.5L24.5103 33.9C24.3796 33.8049 24.222 33.7536 24.0603 33.7536C23.8986 33.7536 23.7411 33.8049 23.6103 33.9L18.6003 37.5C18.0838 37.8673 17.4641 38.0616 16.8303 38.055ZM24.0003 31.5C24.6375 31.5021 25.2574 31.707 25.7703 32.085L30.7353 35.685C30.8661 35.777 31.0225 35.8257 31.1824 35.8243C31.3423 35.8229 31.4977 35.7713 31.6269 35.677C31.756 35.5826 31.8523 35.4502 31.9022 35.2983C31.9522 35.1463 31.9533 34.9826 31.9053 34.83L30.0003 28.98C29.8002 28.3741 29.7985 27.7202 29.9954 27.1133C30.1923 26.5063 30.5776 25.978 31.0953 25.605L36.0003 22.005C36.1354 21.914 36.2356 21.7799 36.2846 21.6247C36.3337 21.4694 36.3286 21.302 36.2703 21.15C36.2244 20.9957 36.129 20.8608 35.9989 20.7659C35.8689 20.6711 35.7113 20.6216 35.5503 20.625H29.4753C28.8427 20.6245 28.2264 20.4241 27.7145 20.0523C27.2027 19.6805 26.8214 19.1565 26.6253 18.555L24.7203 12.72C24.6766 12.5644 24.5819 12.428 24.4513 12.3327C24.3207 12.2375 24.1618 12.189 24.0003 12.195C23.8388 12.189 23.6799 12.2375 23.5493 12.3327C23.4187 12.428 23.324 12.5644 23.2803 12.72L21.3753 18.54C21.1818 19.1443 20.8017 19.6716 20.2896 20.0462C19.7775 20.4209 19.1598 20.6235 18.5253 20.625H12.3903C12.2294 20.6216 12.0718 20.6711 11.9417 20.7659C11.8116 20.8608 11.7163 20.9957 11.6703 21.15C11.612 21.302 11.6069 21.4694 11.656 21.6247C11.705 21.7799 11.8053 21.914 11.9403 22.005L16.9053 25.605C17.423 25.978 17.8083 26.5063 18.0053 27.1133C18.2022 27.7202 18.2004 28.3741 18.0003 28.98L16.0953 34.8C16.0474 34.9526 16.0485 35.1163 16.0984 35.2682C16.1483 35.4202 16.2446 35.5526 16.3738 35.647C16.5029 35.7413 16.6583 35.7929 16.8183 35.7943C16.9782 35.7957 17.1345 35.747 17.2653 35.655L22.2303 32.055C22.7469 31.6877 23.3665 31.4934 24.0003 31.5Z" fill="current"/>
</svg>
