<svg width="48" height="48" viewBox="0 0 48 48" fill="none" xmlns="http://www.w3.org/2000/svg">
<path d="M24 42C20.4399 42 16.9598 40.9443 13.9997 38.9665C11.0397 36.9886 8.73255 34.1774 7.37018 30.8883C6.0078 27.5992 5.65134 23.98 6.34587 20.4884C7.04041 16.9967 8.75474 13.7894 11.2721 11.2721C13.7894 8.75474 16.9967 7.04041 20.4884 6.34587C23.98 5.65134 27.5992 6.0078 30.8883 7.37018C34.1774 8.73255 36.9886 11.0397 38.9665 13.9997C40.9443 16.9598 42 20.4399 42 24C41.9951 28.7724 40.0971 33.3479 36.7225 36.7225C33.3479 40.0971 28.7724 41.9951 24 42ZM24 8.76924C20.9876 8.76924 18.0429 9.66251 15.5382 11.3361C13.0336 13.0097 11.0814 15.3884 9.92861 18.1714C8.77583 20.9545 8.47421 24.0169 9.06189 26.9714C9.64958 29.9259 11.1002 32.6397 13.2302 34.7698C15.3603 36.8998 18.0742 38.3504 21.0286 38.9381C23.9831 39.5258 27.0455 39.2242 29.8286 38.0714C32.6116 36.9186 34.9903 34.9665 36.6639 32.4618C38.3375 29.9571 39.2308 27.0124 39.2308 24C39.2259 19.9621 37.6197 16.0909 34.7644 13.2356C31.9091 10.3804 28.038 8.77412 24 8.76924Z" fill="current"/>
<path d="M17.1141 32.6767C16.7636 32.6732 16.4271 32.5386 16.1709 32.2994C15.9146 32.0602 15.7571 31.7338 15.7295 31.3844V25.1628C15.7295 24.7956 15.8754 24.4434 16.135 24.1838C16.3947 23.9241 16.7469 23.7782 17.1141 23.7782C17.4813 23.7782 17.8335 23.9241 18.0932 24.1838C18.3528 24.4434 18.4987 24.7956 18.4987 25.1628V31.3844C18.4753 31.7354 18.3191 32.0643 18.0619 32.3043C17.8048 32.5443 17.4659 32.6775 17.1141 32.6767Z" fill="current"/>
<path d="M23.9998 32.677C23.6341 32.6722 23.2847 32.5248 23.0261 32.2662C22.7674 32.0075 22.62 31.6581 22.6152 31.2924V16.7078C22.6152 16.3405 22.7611 15.9884 23.0208 15.7287C23.2804 15.469 23.6326 15.3232 23.9998 15.3232C24.3671 15.3232 24.7193 15.469 24.9789 15.7287C25.2386 15.9884 25.3845 16.3405 25.3845 16.7078V31.3847C25.3568 31.7341 25.1994 32.0605 24.9431 32.2997C24.6869 32.5389 24.3504 32.6735 23.9998 32.677Z" fill="current"/>
<path d="M30.8858 32.677C30.5404 32.6686 30.2107 32.5313 29.9613 32.2922C29.712 32.0531 29.561 31.7294 29.5381 31.3847V21.8032C29.5381 21.436 29.684 21.0838 29.9436 20.8241C30.2033 20.5645 30.5555 20.4186 30.9227 20.4186C31.2899 20.4186 31.6421 20.5645 31.9018 20.8241C32.1614 21.0838 32.3073 21.436 32.3073 21.8032V31.3847C32.2792 31.7405 32.1165 32.0722 31.8524 32.3123C31.5883 32.5524 31.2426 32.6828 30.8858 32.677Z" fill="current"/>
</svg>
