<svg width="48" height="48" viewBox="0 0 48 48" fill="none" xmlns="http://www.w3.org/2000/svg">
<path d="M28.9879 6H19.3618L17.6767 8.2505L22.5 15.5H26L30.6714 8.2505L28.9863 6H28.9879ZM16.476 13.7505H3C4.85344 15.5674 6.99277 17.2779 9.25597 18.5008C10.1644 18.7946 10.9522 18.9979 11.9035 19.0011H15.5135L11.6637 23.7514L17.9197 26.7516L20.3258 17.7512L16.476 13.7505ZM31.8753 13.7505H45.3513C43.4962 15.5658 41.3569 17.2795 39.0953 18.5008C38.1868 18.7946 37.3991 18.9979 36.4477 19.0011H32.8377L36.6876 23.7514L30.4316 26.7516L28.0255 17.7512L31.8753 13.7505ZM29.2293 37.9993L25.3795 17.9989C24.5 17.9989 24.5 18 22.9718 17.9989L19.1219 37.9993L22.5 41.5H26L29.2293 37.9993Z" fill="current"/>
</svg>
