<svg width="48" height="48" viewBox="0 0 48 48" fill="none" xmlns="http://www.w3.org/2000/svg">
<path d="M24 41.115C23.8557 41.1165 23.7124 41.0895 23.5786 41.0354C23.4447 40.9813 23.3229 40.9013 23.22 40.8L17.385 35.055C17.1699 34.8458 17.0459 34.5601 17.04 34.26V16.845C17.04 16.5466 17.1586 16.2605 17.3695 16.0495C17.5805 15.8385 17.8667 15.72 18.165 15.72H29.835C29.9821 15.718 30.128 15.7453 30.2644 15.8002C30.4008 15.8551 30.525 15.9365 30.6296 16.0398C30.7343 16.143 30.8174 16.2661 30.8741 16.4017C30.9309 16.5374 30.9601 16.683 30.96 16.83L31.08 34.14C31.0798 34.4383 30.9611 34.7242 30.75 34.935L24.84 40.8C24.7281 40.9059 24.5961 40.9883 24.4519 41.0424C24.3076 41.0965 24.154 41.1212 24 41.115ZM19.29 33.78L24 38.415L28.785 33.675L28.725 18H19.29V33.78Z" fill="current"/>
<path d="M35.5502 18H12.4502C12.1518 18 11.8657 17.8815 11.6547 17.6705C11.4437 17.4595 11.3252 17.1734 11.3252 16.875C11.3252 16.5766 11.4437 16.2905 11.6547 16.0795C11.8657 15.8685 12.1518 15.75 12.4502 15.75H35.5502C35.8486 15.75 36.1347 15.8685 36.3457 16.0795C36.5567 16.2905 36.6752 16.5766 36.6752 16.875C36.6752 17.1734 36.5567 17.4595 36.3457 17.6705C36.1347 17.8815 35.8486 18 35.5502 18Z" fill="current"/>
<path d="M27.5399 18C27.3921 17.998 27.2462 17.967 27.1105 17.9087C26.9747 17.8503 26.8518 17.7658 26.7488 17.6599C26.6457 17.5541 26.5645 17.4289 26.5098 17.2917C26.455 17.1544 26.4279 17.0077 26.4299 16.86C26.4299 14.295 26.4299 11.49 26.4299 10.035H21.6299V16.845C21.6299 17.1434 21.5114 17.4295 21.3004 17.6405C21.0894 17.8515 20.8033 17.97 20.5049 17.97C20.2065 17.97 19.9204 17.8515 19.7094 17.6405C19.4984 17.4295 19.3799 17.1434 19.3799 16.845V8.88C19.3799 8.58164 19.4984 8.29549 19.7094 8.08451C19.9204 7.87353 20.2065 7.755 20.5049 7.755H27.5099C27.8082 7.75527 28.0941 7.87397 28.3049 8.085C28.7399 8.52 28.7399 8.535 28.6349 16.86C28.6389 17.1558 28.5263 17.4414 28.3213 17.6547C28.1164 17.8681 27.8356 17.9921 27.5399 18Z" fill="current"/>
</svg>
