<svg width="48" height="48" viewBox="0 0 48 48" fill="none" xmlns="http://www.w3.org/2000/svg">
<path d="M24 33.69C23.703 33.6835 23.4193 33.5658 23.205 33.36L14.655 24.795C14.4674 24.5903 14.3633 24.3227 14.3633 24.045C14.3633 23.7673 14.4674 23.4997 14.655 23.295L27.24 10.5C27.4508 10.289 27.7367 10.1703 28.035 10.17H36.66C36.9558 10.17 37.2397 10.2864 37.4502 10.4942C37.6608 10.7019 37.781 10.9842 37.785 11.28L37.875 19.8C37.8754 20.1028 37.7569 20.3937 37.545 20.61L24.78 33.375C24.5705 33.5769 24.2909 33.6898 24 33.69ZM17.025 24L24 30.96L35.64 19.335L35.55 12.405L28.5 12.375L17.025 24Z" fill="current"/>
<path d="M28.1854 37.875C28.0376 37.8757 27.8911 37.8469 27.7546 37.7902C27.6181 37.7335 27.4942 37.6502 27.3904 37.545L10.5004 20.61C10.3633 20.3986 10.3012 20.1472 10.3239 19.8963C10.3467 19.6453 10.4531 19.4093 10.626 19.226C10.7989 19.0427 11.0284 18.9227 11.2776 18.8854C11.5268 18.848 11.7813 18.8954 12.0004 19.02L28.9804 36C29.1911 36.2109 29.3094 36.4969 29.3094 36.795C29.3094 37.0931 29.1911 37.3791 28.9804 37.59C28.8733 37.6878 28.7479 37.7633 28.6115 37.8122C28.475 37.8611 28.3302 37.8825 28.1854 37.875Z" fill="current"/>
<path d="M16.5 37.785C16.3431 37.8011 16.1846 37.7841 16.0347 37.735C15.8849 37.6859 15.747 37.6058 15.63 37.5L10.5 32.325C10.3933 32.2161 10.3092 32.0871 10.2525 31.9455C10.1959 31.8039 10.1679 31.6525 10.17 31.5C10.17 30.885 10.17 30.87 16.335 24.87C16.5499 24.6611 16.8389 24.5462 17.1384 24.5504C17.438 24.5546 17.7237 24.6777 17.9325 24.8925C18.1414 25.1073 18.2564 25.3963 18.2521 25.6959C18.2479 25.9955 18.1249 26.2811 17.91 26.49C15.99 28.365 13.89 30.435 12.855 31.5L16.5 35.07L21.465 30C21.5685 29.8939 21.6921 29.8095 21.8286 29.7519C21.9652 29.6943 22.1119 29.6646 22.26 29.6646C22.4082 29.6646 22.5549 29.6943 22.6915 29.7519C22.828 29.8095 22.9516 29.8939 23.055 30C23.2657 30.2109 23.3841 30.4969 23.3841 30.795C23.3841 31.0931 23.2657 31.3791 23.055 31.59L17.22 37.5C17.0187 37.6729 16.7652 37.7733 16.5 37.785Z" fill="current"/>
<path d="M24 25.125C23.8522 25.1257 23.7057 25.0969 23.5692 25.0402C23.4327 24.9835 23.3089 24.9002 23.205 24.795C22.9943 24.5841 22.876 24.2981 22.876 24C22.876 23.7019 22.9943 23.4159 23.205 23.205L29.205 17.205C29.308 17.0945 29.4322 17.0058 29.5702 16.9443C29.7082 16.8828 29.8572 16.8498 30.0082 16.8471C30.1593 16.8444 30.3093 16.8722 30.4494 16.9288C30.5895 16.9854 30.7167 17.0696 30.8235 17.1764C30.9304 17.2833 31.0146 17.4105 31.0712 17.5506C31.1278 17.6907 31.1555 17.8407 31.1529 17.9918C31.1502 18.1428 31.1171 18.2918 31.0557 18.4298C30.9942 18.5678 30.9055 18.692 30.795 18.795L24.795 24.795C24.6911 24.9002 24.5673 24.9835 24.4308 25.0402C24.2943 25.0969 24.1478 25.1257 24 25.125Z" fill="current"/>
</svg>
