<svg width="48" height="48" viewBox="0 0 48 48" fill="none" xmlns="http://www.w3.org/2000/svg">
<path d="M27 9H15C14.2044 9 13.4413 9.31607 12.8787 9.87868C12.3161 10.4413 12 11.2044 12 12V36C12 36.7956 12.3161 37.5587 12.8787 38.1213C13.4413 38.6839 14.2044 39 15 39H33C33.7956 39 34.5587 38.6839 35.1213 38.1213C35.6839 37.5587 36 36.7956 36 36V18L27 9Z" stroke="#7DFAA4" stroke-width="2" stroke-linecap="round" stroke-linejoin="round"/>
<path d="M27 9V18H36" stroke="#7DFAA4" stroke-width="2" stroke-linecap="round" stroke-linejoin="round"/>
<path d="M30 25.5H18" stroke="#7DFAA4" stroke-width="2" stroke-linecap="round" stroke-linejoin="round"/>
<path d="M30 31.5H18" stroke="#7DFAA4" stroke-width="2" stroke-linecap="round" stroke-linejoin="round"/>
<path d="M21 19.5H19.5H18" stroke="#7DFAA4" stroke-width="2" stroke-linecap="round" stroke-linejoin="round"/>
</svg>
