<svg width="48" height="48" viewBox="0 0 48 48" fill="none" xmlns="http://www.w3.org/2000/svg">
<path d="M24.0183 41.9998C23.7765 42.004 23.5384 41.9397 23.3316 41.8142L8.9113 33.4998C8.69784 33.3787 8.52018 33.2034 8.39633 32.9915C8.27248 32.7797 8.20683 32.5388 8.20605 32.2934V15.7017C8.20683 15.4563 8.27248 15.2155 8.39633 15.0036C8.52018 14.7918 8.69784 14.6164 8.9113 14.4954L23.3316 6.18092C23.5444 6.06228 23.784 6 24.0276 6C24.2712 6 24.5108 6.06228 24.7236 6.18092L39.1068 14.4954C39.3181 14.6173 39.4931 14.7934 39.6138 15.0054C39.7345 15.2174 39.7965 15.4577 39.7935 15.7017V32.2934C39.7965 32.5374 39.7345 32.7777 39.6138 32.9898C39.4931 33.2018 39.3181 33.3778 39.1068 33.4998L24.7236 41.8142C24.5092 41.9377 24.2657 42.0017 24.0183 41.9998ZM11.027 31.4212L24.0183 38.8448L37.0096 31.4212V16.574L24.0183 9.15037L11.027 16.574V31.4212Z" fill="current"/>
<path d="M24.0179 31.7554C23.6487 31.7554 23.2947 31.6087 23.0337 31.3477C22.7726 31.0867 22.626 30.7326 22.626 30.3635V17.9289C22.6269 17.6505 22.7102 17.3785 22.8654 17.1473C23.0207 16.9161 23.2409 16.7361 23.4982 16.6298C23.7508 16.5292 24.027 16.5037 24.2937 16.5563C24.5604 16.609 24.8062 16.7377 25.0015 16.9268L30.0867 22.0305C30.218 22.1584 30.3224 22.3114 30.3936 22.4803C30.4649 22.6493 30.5016 22.8308 30.5016 23.0141C30.5016 23.1975 30.4649 23.379 30.3936 23.5479C30.3224 23.7168 30.218 23.8698 30.0867 23.9977C29.8257 24.2584 29.4719 24.4048 29.1031 24.4048C28.7342 24.4048 28.3804 24.2584 28.1194 23.9977L25.4098 21.2881V30.3635C25.4123 30.547 25.378 30.7291 25.309 30.8991C25.2399 31.0691 25.1375 31.2235 25.0077 31.3533C24.878 31.483 24.7235 31.5855 24.5535 31.6545C24.3835 31.7236 24.2014 31.7579 24.0179 31.7554Z" fill="current"/>
<path d="M18.9337 24.4059C18.5662 24.3979 18.2151 24.2522 17.95 23.9976C17.6894 23.7366 17.543 23.3829 17.543 23.014C17.543 22.6451 17.6894 22.2914 17.95 22.0304L23.0352 16.9266C23.1656 16.7975 23.3202 16.6952 23.4901 16.6258C23.66 16.5564 23.8419 16.5211 24.0254 16.5219C24.2089 16.5228 24.3905 16.5598 24.5597 16.6308C24.729 16.7019 24.8826 16.8055 25.0117 16.9359C25.1409 17.0663 25.2431 17.2209 25.3126 17.3908C25.382 17.5607 25.4173 17.7426 25.4165 17.9261C25.4156 18.1096 25.3786 18.2912 25.3076 18.4605C25.2365 18.6297 25.1329 18.7833 25.0025 18.9125L19.9173 23.9976C19.6565 24.2587 19.3027 24.4056 18.9337 24.4059Z" fill="current"/>
</svg>
