<svg width="48" height="48" viewBox="0 0 48 48" fill="none" xmlns="http://www.w3.org/2000/svg">
<path d="M23.9999 28.1902C22.3617 28.1937 20.7593 27.7108 19.3958 26.8029C18.0322 25.8949 16.9688 24.6026 16.3403 23.0897C15.7118 21.5769 15.5464 19.9115 15.8652 18.3046C16.1839 16.6977 16.9725 15.2216 18.1309 14.0632C19.2893 12.9048 20.7654 12.1163 22.3723 11.7975C23.9792 11.4788 25.6446 11.6441 27.1574 12.2726C28.6703 12.9011 29.9626 13.9645 30.8705 15.3281C31.7785 16.6917 32.2614 18.294 32.2579 19.9322C32.2579 22.1224 31.3879 24.2229 29.8392 25.7715C28.2905 27.3202 26.1901 28.1902 23.9999 28.1902ZM23.9999 14.2232C22.8804 14.2198 21.7851 14.5486 20.8525 15.168C19.92 15.7875 19.1923 16.6697 18.7614 17.703C18.3306 18.7363 18.2161 19.8743 18.4324 20.9727C18.6487 22.0711 19.1861 23.0807 19.9764 23.8735C20.7668 24.6664 21.7747 25.2068 22.8725 25.4265C23.9702 25.6462 25.1085 25.5352 26.1431 25.1076C27.1778 24.68 28.0622 23.9549 28.6846 23.0243C29.3069 22.0937 29.6391 20.9994 29.6391 19.8799C29.6253 18.3917 29.0257 16.969 27.9701 15.92C26.9146 14.8709 25.4881 14.2801 23.9999 14.2756V14.2232Z" fill="current"/>
<path d="M36.2217 36.7101C35.9284 36.7091 35.6441 36.6083 35.4156 36.4243C35.1872 36.2403 35.0281 35.9839 34.9647 35.6975C34.4436 33.5541 33.2167 31.6483 31.4814 30.2867C29.746 28.925 27.6031 28.1866 25.3973 28.1902H22.6039C20.4011 28.1905 18.2622 28.9307 16.5304 30.2921C14.7986 31.6534 13.5743 33.5571 13.054 35.6975C13.0127 35.8649 12.9389 36.0225 12.8367 36.1613C12.7345 36.3002 12.606 36.4175 12.4584 36.5067C12.3109 36.5958 12.1473 36.6551 11.9768 36.681C11.8064 36.7069 11.6326 36.699 11.4652 36.6578C11.2978 36.6165 11.1402 36.5427 11.0014 36.4405C10.8626 36.3383 10.7452 36.2098 10.656 36.0622C10.5669 35.9147 10.5076 35.7511 10.4817 35.5807C10.4558 35.4102 10.4637 35.2364 10.505 35.069C11.1661 32.3593 12.7181 29.9502 14.912 28.2279C17.106 26.5057 19.8147 25.5702 22.6039 25.5714H25.3798C28.173 25.5649 30.8866 26.5007 33.0821 28.2273C35.2776 29.9539 36.8267 32.3705 37.4788 35.0865C37.5583 35.4242 37.5023 35.7797 37.3228 36.0767C37.1433 36.3737 36.8546 36.5886 36.5185 36.6752L36.2217 36.7101Z" fill="current"/>
<path d="M24 42C20.4399 42 16.9598 40.9443 13.9997 38.9665C11.0397 36.9886 8.73255 34.1774 7.37018 30.8883C6.0078 27.5992 5.65134 23.98 6.34587 20.4884C7.04041 16.9967 8.75474 13.7894 11.2721 11.2721C13.7894 8.75474 16.9967 7.04041 20.4884 6.34587C23.98 5.65134 27.5992 6.0078 30.8883 7.37018C34.1774 8.73255 36.9886 11.0397 38.9665 13.9997C40.9443 16.9598 42 20.4399 42 24C41.9954 28.7725 40.0975 33.3482 36.7228 36.7228C33.3482 40.0975 28.7725 41.9954 24 42ZM24 8.61882C20.9579 8.61882 17.9841 9.52091 15.4547 11.211C12.9253 12.9011 10.9538 15.3033 9.78965 18.1139C8.62548 20.9244 8.32088 24.0171 8.91437 27.0007C9.50786 29.9844 10.9728 32.725 13.1239 34.8761C15.275 37.0272 18.0156 38.4922 20.9993 39.0856C23.9829 39.6791 27.0756 39.3745 29.8861 38.2104C32.6967 37.0462 35.0989 35.0748 36.789 32.5453C38.4791 30.0159 39.3812 27.0421 39.3812 24C39.3766 19.9221 37.7546 16.0125 34.871 13.129C31.9875 10.2454 28.0779 8.62345 24 8.61882Z" fill="current"/>
</svg>
