<svg width="36" height="31" viewBox="0 0 36 31" fill="none" xmlns="http://www.w3.org/2000/svg">
<path d="M34.6962 8.1434C34.8275 8.66815 34.8824 9.21135 34.9722 9.74654C34.9932 10.0913 35.0226 10.856 34.9722 11.1563V11.1555C34.8758 11.7003 34.8076 12.2515 34.6796 12.7899C34.2566 14.5688 33.3573 16.1278 32.227 17.568C30.6429 19.5876 28.7455 21.3175 26.7766 22.9744C24.1096 25.2186 21.4234 27.442 18.7448 29.6734C18.2603 30.077 17.7533 30.1147 17.3086 29.7408C13.9559 26.9245 10.5875 24.125 7.26968 21.2702C5.66731 19.8917 4.22451 18.3544 3.04101 16.6092C1.54834 14.4083 0.762111 12.0237 1.0638 9.36862C1.36466 6.72 2.48167 4.47175 4.6733 2.79881C6.48013 1.41793 8.56538 0.865899 10.8509 1.07291C13.6418 1.32646 15.6564 2.80282 17.2214 4.94756C17.4873 5.31183 17.7184 5.69938 17.9943 6.12143C18.094 5.95534 18.178 5.81171 18.2652 5.67049C19.2659 4.05532 20.5408 2.70253 22.3077 1.85041C24.4404 0.822571 26.6619 0.743938 28.8718 1.51983C32.0907 2.65037 33.9092 4.99409 34.6962 8.1434Z" stroke="current" stroke-width="2" stroke-miterlimit="10"/>
</svg>
